<svg xmlns="http://www.w3.org/2000/svg" viewBox="410 -1790 1780 2180">
<g transform="scale(1,-1)"><path d="M1301 92Q1242 130 1209.5 153.5Q1177 177 1153.0 206.5Q1129 236 1092 291Q1030 251 971.0 233.5Q912 216 832 214Q813 277 803.5 324.0Q794 371 794 411Q794 435 797 459Q770 455 740 455Q697 455 655.5 466.0Q614 477 560 501Q567 572 584.0 627.0Q601 682 636 731Q587 755 547.0 792.0Q507 829 460 890Q503 949 546.0 987.5Q589 1026 644 1051Q567 1135 526 1279Q578 1322 651.0 1342.5Q724 1363 798 1363Q795 1386 795 1409Q795 1447 803.5 1493.0Q812 1539 832 1603Q912 1601 971.5 1585.0Q1031 1569 1093 1528Q1124 1593 1169.5 1639.0Q1215 1685 1301 1740Q1386 1685 1431.0 1639.0Q1476 1593 1507 1528Q1569 1569 1628.5 1585.0Q1688 1601 1768 1603Q1788 1539 1796.5 1493.0Q1805 1447 1805 1409Q1805 1386 1802 1363Q1876 1363 1949.0 1342.5Q2022 1322 2074 1279Q2033 1135 1956 1051Q2012 1026 2054.5 987.5Q2097 949 2140 890Q2094 829 2054.0 792.0Q2014 755 1964 731Q1999 682 2016.0 627.0Q2033 572 2040 501Q1986 477 1944.5 466.0Q1903 455 1860 455Q1830 455 1803 459Q1806 435 1806 411Q1806 371 1797.0 324.0Q1788 277 1768 214Q1688 216 1629.0 233.5Q1570 251 1508 291Q1472 236 1447.5 206.5Q1423 177 1391.5 153.5Q1360 130 1301 92ZM1086 -213Q966 -213 876.5 -136.0Q787 -59 750 60Q863 132 977 132Q1097 132 1186.0 55.0Q1275 -22 1315 -141Q1202 -213 1086 -213ZM1089 -135Q1150 -135 1213 -105Q1175 -32 1114.0 11.0Q1053 54 974 54Q916 54 851 23Q888 -50 949.0 -92.5Q1010 -135 1089 -135ZM1252 -340 1178 -306Q1228 -197 1253.5 -79.0Q1279 39 1279 189L1359 187Q1359 32 1332.0 -96.5Q1305 -225 1252 -340ZM1528 -225Q1389 -225 1259 -111Q1313 -11 1399.0 47.0Q1485 105 1584 105Q1724 105 1849 -11Q1797 -113 1711.5 -169.0Q1626 -225 1528 -225ZM1528 -147Q1657 -147 1744 -29Q1664 27 1584 27Q1523 27 1466.5 -4.0Q1410 -35 1366 -92Q1449 -147 1528 -147ZM1301 189Q1346 218 1376.5 245.0Q1407 272 1432.5 308.5Q1458 345 1486 403Q1551 354 1598.0 330.0Q1645 306 1709 298Q1720 342 1726.0 378.5Q1732 415 1732 447Q1732 476 1727.5 502.0Q1723 528 1715 553Q1765 542 1797.5 537.5Q1830 533 1858 533Q1899 533 1953 552Q1941 616 1919.0 659.0Q1897 702 1851 757Q1918 783 1955.5 809.5Q1993 836 2038 891Q1989 948 1946.0 980.0Q1903 1012 1850 1038Q1892 1080 1925.0 1129.5Q1958 1179 1979 1246Q1936 1269 1881.5 1278.5Q1827 1288 1772 1288Q1758 1288 1744.0 1287.5Q1730 1287 1716 1286Q1722 1317 1725.5 1342.0Q1729 1367 1729 1391Q1729 1419 1724.0 1449.0Q1719 1479 1709 1519Q1664 1514 1626.5 1501.5Q1589 1489 1552.5 1467.0Q1516 1445 1471 1412Q1449 1469 1429.5 1506.5Q1410 1544 1381.5 1575.5Q1353 1607 1301 1644Q1249 1607 1219.5 1575.5Q1190 1544 1171.0 1506.5Q1152 1469 1129 1412Q1085 1445 1048.0 1467.0Q1011 1489 974.0 1501.5Q937 1514 891 1519Q881 1479 876.0 1449.0Q871 1419 871 1391Q871 1367 874.5 1342.0Q878 1317 884 1286Q871 1287 856.5 1287.5Q842 1288 828 1288Q773 1288 719.0 1278.5Q665 1269 621 1246Q642 1179 675.0 1129.5Q708 1080 750 1038Q697 1012 654.5 980.0Q612 948 562 891Q607 836 644.5 809.5Q682 783 749 757Q703 702 681.0 659.0Q659 616 647 552Q701 533 742 533Q770 533 803.0 537.5Q836 542 885 553Q877 528 872.5 502.0Q868 476 868 447Q868 415 874.0 378.5Q880 342 891 298Q955 306 1002.0 330.0Q1049 354 1114 403Q1142 345 1167.5 308.5Q1193 272 1224.5 245.0Q1256 218 1301 189ZM1300 466Q1178 466 1077.0 527.0Q976 588 916.0 690.0Q856 792 856 914Q856 1037 916.0 1138.5Q976 1240 1077.0 1300.5Q1178 1361 1300 1361Q1422 1361 1523.0 1300.5Q1624 1240 1684.0 1138.5Q1744 1037 1744 914Q1744 792 1684.0 690.0Q1624 588 1523.0 527.0Q1422 466 1300 466ZM1300 544Q1400 544 1482.5 594.0Q1565 644 1614.5 728.5Q1664 813 1664 914Q1664 1016 1614.5 1099.5Q1565 1183 1482.5 1233.0Q1400 1283 1300 1283Q1200 1283 1117.5 1233.0Q1035 1183 985.5 1099.5Q936 1016 936 914Q936 813 985.5 728.5Q1035 644 1117.5 594.0Q1200 544 1300 544ZM1300 673Q1233 673 1178.0 705.5Q1123 738 1090.5 792.5Q1058 847 1058 914Q1058 981 1090.5 1035.0Q1123 1089 1178.0 1121.5Q1233 1154 1300 1154Q1367 1154 1422.0 1121.5Q1477 1089 1509.5 1035.0Q1542 981 1542 914Q1542 847 1509.5 792.5Q1477 738 1422.5 705.5Q1368 673 1300 673Z" fill="#F9A825"/></g>
</svg>