<svg xmlns="http://www.w3.org/2000/svg" viewBox="112 -1790 2376 2180">
<g transform="scale(1,-1)"><path d="M1407 -340Q1319 -340 1266.5 -306.0Q1214 -272 1214 -216Q1214 -188 1235.0 -141.5Q1256 -95 1283.5 -28.0Q1311 39 1332.0 129.5Q1353 220 1353 336Q1353 412 1343.5 487.0Q1334 562 1314 638Q1247 618 1176.0 608.0Q1105 598 1038 598Q856 598 691.0 672.0Q526 746 390.5 888.0Q255 1030 162 1232Q325 1327 469.0 1371.5Q613 1416 759 1416Q926 1416 1076.0 1351.0Q1226 1286 1349 1164Q1422 1345 1549.5 1473.5Q1677 1602 1846.0 1671.0Q2015 1740 2214 1740Q2296 1740 2342.5 1737.5Q2389 1735 2438 1729Q2438 1434 2331.5 1207.5Q2225 981 2034.5 842.0Q1844 703 1591 670Q1623 559 1646.0 454.5Q1669 350 1681.5 249.5Q1694 149 1694 48Q1694 -160 1626.0 -250.0Q1558 -340 1407 -340ZM1129 950Q1019 1026 902.5 1067.5Q786 1109 661 1114Q621 1116 621 1155Q621 1172 633.0 1183.0Q645 1194 663 1194Q753 1194 840.5 1172.5Q928 1151 1012.0 1111.5Q1096 1072 1175 1016Q1190 1006 1193.0 989.5Q1196 973 1185 959Q1162 928 1129 950ZM1407 -260Q1519 -260 1566.5 -194.5Q1614 -129 1614 48Q1614 154 1599.5 261.0Q1585 368 1557.5 486.0Q1530 604 1491 742Q1689 750 1846.5 824.0Q2004 898 2116.0 1023.0Q2228 1148 2289.5 1310.0Q2351 1472 2357 1656Q2330 1658 2296.5 1659.0Q2263 1660 2214 1660Q2017 1660 1853.0 1589.0Q1689 1518 1566.5 1379.5Q1444 1241 1369 1036Q1222 1191 1074.0 1263.5Q926 1336 759 1336Q639 1336 515.0 1302.0Q391 1268 267 1202Q351 1039 469.5 921.5Q588 804 732.5 741.0Q877 678 1038 678Q1121 678 1205.5 690.0Q1290 702 1369 734Q1402 635 1417.5 535.0Q1433 435 1433 336Q1433 217 1412.0 124.0Q1391 31 1363.5 -37.0Q1336 -105 1315.0 -148.0Q1294 -191 1294 -211Q1294 -234 1320.5 -247.0Q1347 -260 1407 -260ZM1587 1067Q1573 1076 1570.0 1092.5Q1567 1109 1577 1124Q1631 1202 1695.5 1267.5Q1760 1333 1830.0 1385.5Q1900 1438 1970 1474Q1986 1482 2001.5 1476.0Q2017 1470 2023 1454Q2037 1420 2004 1403Q1895 1346 1807.0 1268.5Q1719 1191 1642 1078Q1620 1046 1587 1067Z" fill="#2E7D32"/></g>
</svg>