<svg xmlns="http://www.w3.org/2000/svg" viewBox="130 -1790 2340 2180">
<g transform="scale(1,-1)"><path d="M1300 -340Q1068 -340 865.0 -268.5Q662 -197 508.0 -72.0Q354 53 267.0 216.5Q180 380 180 564Q180 720 241.5 861.5Q303 1003 409.0 1113.0Q515 1223 649.5 1286.5Q784 1350 930 1350Q989 1350 1048.5 1340.5Q1108 1331 1164 1302L1144 1224Q1098 1250 1048.5 1261.0Q999 1272 930 1272Q800 1272 679.5 1214.0Q559 1156 464.5 1056.0Q370 956 315.0 829.0Q260 702 260 564Q260 396 341.5 246.5Q423 97 566.5 -17.5Q710 -132 898.0 -197.0Q1086 -262 1300 -262Q1514 -262 1702.0 -197.0Q1890 -132 2033.5 -17.5Q2177 97 2258.5 246.5Q2340 396 2340 564Q2340 702 2285.0 829.0Q2230 956 2135.5 1056.0Q2041 1156 1921.0 1214.0Q1801 1272 1670 1272Q1601 1272 1551.5 1261.0Q1502 1250 1456 1224L1436 1302Q1492 1331 1552.0 1340.5Q1612 1350 1670 1350Q1816 1350 1950.5 1286.5Q2085 1223 2191.0 1113.0Q2297 1003 2358.5 861.5Q2420 720 2420 564Q2420 380 2333.0 216.5Q2246 53 2092.0 -72.0Q1938 -197 1735.0 -268.5Q1532 -340 1300 -340ZM669 243Q651 243 634.5 259.5Q618 276 600 304Q567 357 541.5 438.0Q516 519 516 598Q516 651 525.0 696.5Q534 742 546 771Q568 823 593 823Q607 823 617.5 813.0Q628 803 628 789Q628 767 612.0 717.5Q596 668 596 597Q596 524 621.5 450.5Q647 377 695 308Q703 295 703 279Q703 263 693.0 253.0Q683 243 669 243ZM1548 775Q1539 775 1528.0 776.0Q1517 777 1505 779Q1425 794 1375.5 822.5Q1326 851 1295.0 884.5Q1264 918 1240.5 948.0Q1217 978 1190.5 997.5Q1164 1017 1121 1017Q1093 1017 1058.0 1012.5Q1023 1008 978 1008Q933 1008 873.5 1019.5Q814 1031 770.0 1055.5Q726 1080 726 1118Q726 1132 755 1132Q815 1132 851.0 1138.0Q887 1144 911.5 1155.5Q936 1167 961.5 1182.0Q987 1197 1027 1215Q977 1231 933.0 1277.0Q889 1323 862.0 1387.0Q835 1451 835 1521Q835 1534 848 1534Q857 1534 872.5 1523.5Q888 1513 905 1498L946 1461Q970 1439 1009.0 1437.5Q1048 1436 1094 1402Q1142 1367 1175.0 1329.5Q1208 1292 1261 1292Q1300 1292 1330.0 1323.5Q1360 1355 1393.5 1395.5Q1427 1436 1474.0 1467.5Q1521 1499 1594 1499Q1618 1499 1646.0 1494.5Q1674 1490 1674 1479Q1674 1474 1660.5 1465.5Q1647 1457 1612 1418L1542 1340Q1498 1291 1476 1242Q1534 1242 1577.0 1216.0Q1620 1190 1661.0 1164.0Q1702 1138 1753 1138Q1761 1138 1772.0 1139.5Q1783 1141 1793 1141Q1817 1141 1817 1128Q1817 1105 1791.0 1085.5Q1765 1066 1729.0 1055.0Q1693 1044 1664 1044Q1618 1044 1574.0 1055.5Q1530 1067 1500 1067Q1473 1067 1463 1050Q1477 1023 1489.0 981.5Q1501 940 1504 910Q1506 888 1522.0 863.0Q1538 838 1557 823Q1580 805 1580 790Q1580 775 1548 775ZM1193 1264Q1193 1377 1207.0 1478.0Q1221 1579 1261 1682L1270 1705Q1283 1740 1322 1740Q1357 1740 1370.0 1715.0Q1383 1690 1373 1664L1363 1637Q1328 1543 1314.5 1454.0Q1301 1365 1301 1264Z" fill="#E53935"/></g>
</svg>