<svg xmlns="http://www.w3.org/2000/svg" viewBox="168 -1690 2264 1980">
<g transform="scale(1,-1)"><path d="M1595 -240Q1377 -240 1185.5 -166.0Q994 -92 848.5 39.5Q703 171 621.0 345.0Q539 519 539 718V735Q539 834 530.5 899.0Q522 964 513.5 1016.5Q505 1069 505 1127Q505 1173 535.5 1212.5Q566 1252 615 1276Q625 1348 669.5 1398.5Q714 1449 785 1449Q812 1449 837.0 1444.5Q862 1440 886 1432Q959 1449 1040.0 1457.0Q1121 1465 1208 1465Q1569 1465 1809.5 1352.5Q2050 1240 2179.5 1003.5Q2309 767 2335 396Q2338 354 2349.5 299.5Q2361 245 2371.5 191.5Q2382 138 2382 96Q2382 18 2338.5 -49.5Q2295 -117 2224.0 -158.5Q2153 -200 2070 -200Q2026 -200 1998.5 -198.5Q1971 -197 1935 -194Q1757 -240 1595 -240ZM505 2Q357 166 287.5 318.0Q218 470 218 615Q218 790 309.0 954.5Q400 1119 563 1274L628 1209L537 1145L578 949L591 571L710 290Q672 221 620.5 148.5Q569 76 505 2ZM706 1158Q686 1158 673 1170L602 1231Q493 1324 438.5 1385.0Q384 1446 365.0 1485.5Q346 1525 346 1554Q346 1589 371.0 1614.5Q396 1640 422 1640Q440 1640 442.5 1623.0Q445 1606 449.5 1582.0Q454 1558 477 1535L761 1264Q776 1250 776 1229Q776 1205 754.5 1181.5Q733 1158 706 1158ZM1595 -162Q1672 -162 1751.5 -150.5Q1831 -139 1928 -114Q1967 -118 1993.0 -120.0Q2019 -122 2070 -122Q2129 -122 2182.0 -90.0Q2235 -58 2268.5 -8.0Q2302 42 2302 96Q2302 128 2291.5 181.0Q2281 234 2270.0 290.0Q2259 346 2255 387Q2225 745 2108.5 965.0Q1992 1185 1772.0 1286.0Q1552 1387 1208 1387Q1117 1387 1038.0 1378.5Q959 1370 886 1350Q855 1360 830.5 1365.5Q806 1371 781 1371Q729 1371 708.5 1331.5Q688 1292 688 1223Q660 1222 636.5 1206.0Q613 1190 599.0 1168.5Q585 1147 585 1127Q585 1063 601.5 966.5Q618 870 618 735V718Q618 533 693.0 373.0Q768 213 901.0 93.0Q1034 -27 1212.0 -94.5Q1390 -162 1595 -162ZM1726 943Q1707 943 1692 957Q1617 1026 1510 1065Q1405 1103 1280 1109Q1263 1110 1251.5 1121.5Q1240 1133 1240 1149Q1240 1166 1252.0 1177.5Q1264 1189 1283 1189Q1344 1189 1411.5 1175.0Q1479 1161 1540 1138Q1632 1104 1695.5 1059.0Q1759 1014 1759 976Q1759 963 1749.5 953.0Q1740 943 1726 943Z" fill="#F9A825"/></g>
</svg>