<svg xmlns="http://www.w3.org/2000/svg" viewBox="66 -1740 2468 2080">
<g transform="scale(1,-1)"><path d="M1300 -198Q1034 -198 816.5 -142.5Q599 -87 442.0 15.5Q285 118 200.5 261.0Q116 404 116 578Q116 757 208.0 907.0Q300 1057 476 1165L487 1076Q348 988 272.0 859.0Q196 730 196 578Q196 422 274.5 294.0Q353 166 499.0 74.0Q645 -18 848.0 -68.0Q1051 -118 1300 -118Q1549 -118 1752.0 -68.0Q1955 -18 2101.0 74.0Q2247 166 2325.5 294.0Q2404 422 2404 578Q2404 789 2252.5 954.0Q2101 1119 1831 1201L1767 1303Q1989 1248 2150.0 1142.0Q2311 1036 2397.5 892.0Q2484 748 2484 578Q2484 404 2399.5 261.0Q2315 118 2158.0 15.5Q2001 -87 1783.5 -142.5Q1566 -198 1300 -198ZM912 189Q933 189 946.0 201.5Q959 214 959 229Q959 244 951.5 256.0Q944 268 921 274Q807 303 726.0 353.0Q645 403 599 465Q571 503 543 503Q527 503 516.5 489.5Q506 476 506 461Q506 425 549.0 378.5Q592 332 657.5 289.0Q723 246 792.0 217.5Q861 189 912 189ZM1300 -290Q1035 -290 849.0 -239.0Q663 -188 553.0 -101.5Q443 -15 404 92L798 -93L1300 -156L1810 -93L2205 92Q2167 -15 2056.0 -101.5Q1945 -188 1757.5 -239.0Q1570 -290 1300 -290ZM932 370Q976 370 993.5 385.5Q1011 401 1011 421Q1011 471 965.5 496.5Q920 522 865 522Q843 522 817.0 506.0Q791 490 791 470Q791 417 817.0 393.5Q843 370 932 370ZM1352 101Q1404 101 1432.5 140.5Q1461 180 1461 227Q1461 285 1431.5 308.0Q1402 331 1348 331Q1310 331 1283.5 307.5Q1257 284 1243 252Q1223 223 1223 195Q1223 137 1260.0 119.0Q1297 101 1352 101ZM1194 316Q1241 342 1270.5 372.5Q1300 403 1300 433Q1300 466 1280.5 485.0Q1261 504 1229 504Q1185 504 1151.0 472.5Q1117 441 1117 399Q1117 366 1139.5 345.5Q1162 325 1194 316ZM1193 724 1199 775Q1220 775 1238.5 795.0Q1257 815 1257 837Q1257 844 1255 852L1301 871Q1307 853 1307 838Q1307 795 1273.5 759.5Q1240 724 1199 724Q1198 724 1196.5 724.0Q1195 724 1193 724ZM1631 232Q1738 232 1778.5 282.5Q1819 333 1819 433Q1819 458 1797.5 491.0Q1776 524 1744 524Q1724 524 1694.0 498.5Q1664 473 1634.5 435.0Q1605 397 1585.0 359.0Q1565 321 1565 295Q1565 267 1580.0 249.5Q1595 232 1631 232ZM1300 37Q1106 37 936.0 75.5Q766 114 637.0 186.5Q508 259 435.0 362.5Q362 466 362 595Q362 663 379.0 727.0Q396 791 442 855Q435 875 432.0 893.5Q429 912 429 929Q429 984 456 1021Q442 1043 436.0 1064.5Q430 1086 430 1109Q430 1174 472.5 1223.5Q515 1273 573 1300Q579 1381 634.5 1439.0Q690 1497 770 1503Q796 1563 851.0 1598.0Q906 1633 975 1633Q999 1633 1018 1630Q1051 1658 1094.0 1674.0Q1137 1690 1185 1690Q1233 1690 1276.0 1674.0Q1319 1658 1352 1630Q1372 1633 1395 1633Q1464 1633 1519.0 1598.0Q1574 1563 1600 1503Q1680 1497 1735.5 1439.0Q1791 1381 1797 1300Q1855 1273 1897.5 1223.5Q1940 1174 1940 1109Q1940 1089 1936.0 1064.0Q1932 1039 1921 1020Q2088 929 2163.5 819.5Q2239 710 2239 595Q2239 466 2166.0 362.5Q2093 259 1964.0 186.5Q1835 114 1664.5 75.5Q1494 37 1300 37ZM1208 599Q1395 599 1542.5 641.5Q1690 684 1776.0 756.0Q1862 828 1862 918Q1862 963 1833 1001Q1848 1020 1854.0 1047.0Q1860 1074 1860 1093Q1860 1158 1820.0 1193.0Q1780 1228 1730 1238Q1731 1243 1731 1252Q1731 1305 1708.5 1345.5Q1686 1386 1648.0 1409.5Q1610 1433 1561 1433Q1554 1433 1547 1432Q1528 1493 1486.0 1523.0Q1444 1553 1382 1553Q1367 1553 1351.0 1552.0Q1335 1551 1323 1549Q1297 1578 1261.0 1594.0Q1225 1610 1185 1610Q1145 1610 1109.0 1594.0Q1073 1578 1047 1549Q1035 1551 1019.0 1552.0Q1003 1553 988 1553Q926 1553 884.5 1523.0Q843 1493 823 1432Q818 1433 815.5 1433.0Q813 1433 809 1433Q761 1433 722.5 1409.5Q684 1386 661.5 1345.5Q639 1305 639 1252Q639 1248 639.0 1245.0Q639 1242 640 1238Q591 1228 550.5 1193.0Q510 1158 510 1093Q510 1074 516.0 1047.0Q522 1020 537 1001Q508 963 508 917Q508 850 564.0 792.5Q620 735 717.0 691.5Q814 648 940.5 623.5Q1067 599 1208 599ZM1469 769 1475 820Q1496 820 1514.5 840.0Q1533 860 1533 882Q1533 889 1531 897L1577 916Q1583 898 1583 883Q1583 840 1549.5 804.5Q1516 769 1475 769Q1474 769 1472.5 769.0Q1471 769 1469 769ZM1392 944 1398 995Q1419 995 1437.5 1015.0Q1456 1035 1456 1057Q1456 1064 1454 1072L1500 1091Q1506 1073 1506 1058Q1506 1015 1472.5 979.5Q1439 944 1398 944Q1397 944 1395.5 944.0Q1394 944 1392 944ZM1949 559Q2052 559 2093.5 580.0Q2135 601 2135 652Q2135 688 2119.0 716.0Q2103 744 2083 744Q2055 744 2029 727Q2008 730 1986 730Q1906 730 1860.0 702.0Q1814 674 1814 624Q1814 596 1853.0 577.5Q1892 559 1949 559ZM1412 1164 1418 1215Q1439 1215 1457.5 1235.0Q1476 1255 1476 1277Q1476 1284 1474 1292L1520 1311Q1526 1293 1526 1278Q1526 1235 1492.5 1199.5Q1459 1164 1418 1164Q1417 1164 1415.5 1164.0Q1414 1164 1412 1164ZM1627 992 1617 1042Q1631 1047 1641.5 1064.5Q1652 1082 1652 1102Q1652 1120 1642 1134L1679 1168Q1702 1140 1702 1102Q1702 1064 1680.5 1032.5Q1659 1001 1627 992Z" fill="#E65100"/></g>
</svg>