<svg xmlns="http://www.w3.org/2000/svg" viewBox="248 -1790 2104 2180">
<g transform="scale(1,-1)"><path d="M1749 -340Q1519 -340 1357.5 -232.5Q1196 -125 1105 77Q1063 170 1040.5 267.0Q1018 364 1001.5 459.5Q985 555 961.5 646.0Q938 737 894 819Q867 870 839.5 906.5Q812 943 771.5 975.0Q731 1007 667.5 1042.5Q604 1078 505 1127Q400 1179 349.0 1228.0Q298 1277 298 1342Q298 1376 315.0 1406.0Q332 1436 369 1457Q397 1473 425.5 1485.0Q454 1497 472 1518Q482 1529 486.5 1553.0Q491 1577 498 1605Q515 1675 548.0 1707.5Q581 1740 639 1740Q692 1740 730.5 1703.5Q769 1667 799.0 1608.5Q829 1550 856 1484Q910 1354 960.5 1271.5Q1011 1189 1074.0 1135.0Q1137 1081 1227 1035Q1366 966 1510.5 919.0Q1655 872 1791.0 820.5Q1927 769 2040 685Q2195 571 2248.5 436.0Q2302 301 2302 164Q2302 23 2236.5 -91.5Q2171 -206 2047.5 -273.0Q1924 -340 1749 -340ZM1605 -99Q1622 -110 1639.5 -107.5Q1657 -105 1666 -89Q1686 -54 1649 -31Q1629 -18 1611.0 -5.0Q1593 8 1574 24Q1558 37 1541.5 37.5Q1525 38 1514 24Q1503 11 1505.0 -7.0Q1507 -25 1523 -38Q1544 -54 1563.5 -69.0Q1583 -84 1605 -99ZM1383 145Q1399 151 1405.5 166.0Q1412 181 1405 200Q1398 219 1393.5 237.5Q1389 256 1384 276Q1380 295 1366.5 305.5Q1353 316 1336 312Q1320 308 1311.0 293.0Q1302 278 1306 258Q1311 236 1317.5 215.0Q1324 194 1331 172Q1337 154 1352.0 146.5Q1367 139 1383 145ZM1262 533Q1278 539 1284.5 555.0Q1291 571 1283 590Q1274 613 1264.0 635.0Q1254 657 1243 679Q1234 697 1218.0 703.5Q1202 710 1188 701Q1155 680 1173 644Q1184 624 1193.5 604.5Q1203 585 1210 564Q1217 545 1232.0 536.0Q1247 527 1262 533ZM785 1065Q807 1112 837.0 1147.5Q867 1183 907 1206Q870 1263 837.0 1329.0Q804 1395 778 1466Q738 1576 706.0 1619.0Q674 1662 648 1662Q612 1662 596.5 1637.5Q581 1613 574.0 1578.5Q567 1544 560.5 1512.0Q554 1480 536 1464Q517 1447 487.0 1431.5Q457 1416 430 1400Q408 1387 393.0 1373.5Q378 1360 378 1344Q378 1307 419.0 1271.5Q460 1236 545 1194Q605 1164 669.0 1130.5Q733 1097 785 1065Z" fill="#EF6C00"/></g>
</svg>