<svg xmlns="http://www.w3.org/2000/svg" viewBox="52 -1790 2499 2180">
<g transform="scale(1,-1)"><path d="M1311 -60Q1163 -60 1033.5 -4.5Q904 51 805.5 149.5Q707 248 651.5 377.5Q596 507 596 655Q596 803 651.5 932.5Q707 1062 805.5 1160.5Q904 1259 1033.5 1314.5Q1163 1370 1311 1370Q1459 1370 1588.5 1314.5Q1718 1259 1816.5 1160.5Q1915 1062 1970.5 932.5Q2026 803 2026 655Q2026 507 1970.5 377.5Q1915 248 1816.5 149.5Q1718 51 1588.5 -4.5Q1459 -60 1311 -60ZM284 -340Q211 -340 186.0 -313.5Q161 -287 161 -249Q161 -173 170.5 -73.5Q180 26 192.0 137.5Q204 249 213.5 361.0Q223 473 223 575Q223 636 218.5 690.0Q214 744 203 787H366Q356 744 351.0 690.0Q346 636 346 575Q346 473 355.5 361.0Q365 249 377.0 137.5Q389 26 398.5 -73.5Q408 -173 408 -249Q408 -287 383.0 -313.5Q358 -340 284 -340ZM286 745Q199 745 150.5 802.0Q102 859 102 960Q102 1022 105.0 1100.5Q108 1179 114.5 1281.5Q121 1384 131 1519H189L170 1036Q169 1017 179.5 1005.5Q190 994 209 994Q228 994 240.0 1005.0Q252 1016 252 1034L256 1519H316L320 1034Q320 1016 332.0 1005.0Q344 994 363 994Q382 994 392.5 1005.5Q403 1017 402 1036L383 1519H441Q451 1384 457.5 1281.5Q464 1179 467.0 1100.5Q470 1022 470 960Q470 859 421.5 802.0Q373 745 286 745ZM1311 20Q1443 20 1558.0 69.5Q1673 119 1760.0 206.0Q1847 293 1896.5 408.0Q1946 523 1946 655Q1946 787 1896.5 902.0Q1847 1017 1760.0 1104.0Q1673 1191 1558.0 1240.5Q1443 1290 1311 1290Q1179 1290 1064.0 1240.5Q949 1191 862.0 1104.0Q775 1017 725.5 902.0Q676 787 676 655Q676 523 725.5 408.0Q775 293 862.0 206.0Q949 119 1064.0 69.5Q1179 20 1311 20ZM1011 430Q995 419 980.0 421.5Q965 424 955 440Q927 487 911.5 541.5Q896 596 896 655Q896 770 952.0 864.0Q1008 958 1102.5 1014.0Q1197 1070 1311 1070Q1440 1070 1539 1002Q1556 991 1558.0 977.0Q1560 963 1548 947Q1525 917 1491 938Q1452 963 1406.5 976.5Q1361 990 1311 990Q1219 990 1142.5 945.0Q1066 900 1021.0 824.0Q976 748 976 655Q976 609 988.0 566.0Q1000 523 1021 486Q1040 452 1011 430ZM2374 -340Q2312 -340 2281.5 -317.5Q2251 -295 2251 -249Q2251 -177 2270.5 -67.0Q2290 43 2309.5 175.0Q2329 307 2329 441Q2329 571 2309 663Q2240 700 2209.5 755.0Q2179 810 2179 896Q2179 1059 2197.0 1210.0Q2215 1361 2246.0 1480.5Q2277 1600 2316.0 1670.0Q2355 1740 2397 1740Q2429 1740 2430 1686L2454 735Q2457 601 2460.0 495.0Q2463 389 2467.5 284.5Q2472 180 2479.0 53.5Q2486 -73 2498 -249Q2501 -294 2469.5 -317.0Q2438 -340 2374 -340Z" fill="#546E7A"/></g>
</svg>