<svg xmlns="http://www.w3.org/2000/svg" viewBox="7 -1790 2586 2180">
<g transform="scale(1,-1)"><path d="M1300 -340Q908 -340 707.5 -248.5Q507 -157 450 48L355 391Q338 454 314.0 480.0Q290 506 233 525Q139 557 98.0 602.5Q57 648 57 723Q57 799 85.0 866.5Q113 934 157.5 976.0Q202 1018 252 1018Q280 1018 313.5 1006.5Q347 995 389 971Q543 1082 717.0 1148.5Q891 1215 1099 1234L1116 1154Q905 1135 730.0 1067.0Q555 999 394 877Q345 908 310.0 923.0Q275 938 252 938Q226 938 199.0 905.0Q172 872 154.5 822.5Q137 773 137 723Q137 677 162.5 650.5Q188 624 258 601Q335 576 372.0 535.5Q409 495 432 412L527 69Q576 -106 757.5 -184.0Q939 -262 1300 -262Q1662 -262 1843.0 -184.0Q2024 -106 2073 69L2168 412Q2191 495 2228.5 535.5Q2266 576 2342 601Q2412 624 2437.5 650.5Q2463 677 2463 723Q2463 773 2445.5 822.5Q2428 872 2401.5 905.0Q2375 938 2348 938Q2326 938 2290.5 923.0Q2255 908 2206 877Q2081 976 1939.5 1038.0Q1798 1100 1629.0 1129.0Q1460 1158 1252 1158L1364 1235Q1615 1229 1825.0 1163.5Q2035 1098 2211 971Q2253 995 2286.5 1006.5Q2320 1018 2348 1018Q2398 1018 2442.5 976.0Q2487 934 2515.0 866.5Q2543 799 2543 723Q2543 648 2502.5 602.5Q2462 557 2367 525Q2310 506 2286.0 480.0Q2262 454 2245 391L2150 48Q2093 -157 1892.5 -248.5Q1692 -340 1300 -340ZM1030 532Q1065 532 1092.5 541.5Q1120 551 1120 562Q1120 612 1072.0 647.0Q1024 682 956 682Q916 682 890.0 664.0Q864 646 864 618Q864 601 891.5 580.5Q919 560 957.5 546.0Q996 532 1030 532ZM1312 563Q1351 563 1374.5 575.0Q1398 587 1398 606Q1398 676 1308 676Q1286 676 1263.0 652.0Q1240 628 1240 606Q1240 587 1260.5 575.0Q1281 563 1312 563ZM1623 531Q1652 531 1677.0 559.0Q1702 587 1702 618Q1702 662 1639 662Q1614 662 1585.5 645.5Q1557 629 1536.5 606.5Q1516 584 1516 565Q1516 547 1541.0 539.0Q1566 531 1623 531ZM1286 1041Q1171 1041 1098.0 1102.0Q1025 1163 1025 1262Q1025 1338 1083.0 1401.5Q1141 1465 1298 1533L1358 1559Q1445 1597 1477.0 1619.5Q1509 1642 1509 1667Q1509 1702 1476 1740Q1591 1740 1664.0 1680.5Q1737 1621 1737 1522Q1737 1446 1679.0 1382.5Q1621 1319 1464 1251L1404 1225Q1317 1188 1285.0 1165.0Q1253 1142 1253 1117Q1253 1079 1286 1041ZM1185 1148Q1185 1187 1227.5 1220.5Q1270 1254 1370 1297L1430 1323Q1560 1379 1608.5 1424.0Q1657 1469 1657 1524Q1657 1567 1634.5 1597.5Q1612 1628 1577 1636Q1577 1597 1534.5 1564.0Q1492 1531 1392 1487L1332 1461Q1202 1405 1153.5 1360.0Q1105 1315 1105 1260Q1105 1217 1128.0 1186.5Q1151 1156 1185 1148ZM502 705Q502 776 566.0 839.0Q630 902 741.0 951.0Q852 1000 996.0 1028.0Q1140 1056 1300 1056Q1460 1056 1604.0 1028.0Q1748 1000 1859.0 951.0Q1970 902 2034.0 839.0Q2098 776 2098 705Q2098 635 2036.0 573.0Q1974 511 1864.5 464.5Q1755 418 1610.0 391.5Q1465 365 1300 365Q1135 365 990.0 391.5Q845 418 735.5 464.5Q626 511 564.0 573.0Q502 635 502 705ZM582 705Q582 661 632 617Q652 658 716.0 696.0Q780 734 873.5 764.0Q967 794 1077.5 811.5Q1188 829 1300 829Q1412 829 1522.5 811.5Q1633 794 1726.5 764.0Q1820 734 1884.0 696.0Q1948 658 1968 617Q2018 661 2018 705Q2018 755 1957.0 803.5Q1896 852 1792.5 891.0Q1689 930 1561.5 953.0Q1434 976 1300 976Q1167 976 1039.0 953.0Q911 930 807.5 891.0Q704 852 643.0 803.5Q582 755 582 705Z" fill="#6D4C41"/></g>
</svg>