<svg xmlns="http://www.w3.org/2000/svg" viewBox="244 -1790 2112 2180">
<g transform="scale(1,-1)"><path d="M397 -340Q351 -340 322.5 -314.0Q294 -288 294 -242Q294 -215 304.5 -176.5Q315 -138 340 -80L719 819L792 789L414 -110Q396 -153 387.0 -180.5Q378 -208 378 -225Q378 -238 384.0 -249.0Q390 -260 411 -260Q434 -260 480.0 -243.0Q526 -226 576 -206L1363 116L1469 72L605 -281Q526 -313 478.0 -326.5Q430 -340 397 -340ZM708 -194Q616 -152 547.5 -87.5Q479 -23 444 57L487 150Q525 47 609.5 -32.0Q694 -111 808 -150ZM985 -82Q888 -59 801.0 -0.5Q714 58 652.0 140.5Q590 223 566 316L615 424Q633 306 702.5 208.0Q772 110 877.0 47.0Q982 -16 1104 -28ZM1319 44Q1190 44 1076.0 92.0Q962 140 875.0 224.5Q788 309 738.0 419.0Q688 529 688 653Q688 811 768.0 898.0Q848 985 991 985Q1110 985 1221.5 930.0Q1333 875 1423.0 781.0Q1513 687 1565.5 570.0Q1618 453 1618 330Q1618 191 1541.5 117.5Q1465 44 1319 44ZM1319 124Q1432 124 1485.0 174.0Q1538 224 1538 330Q1538 437 1491.5 539.0Q1445 641 1366.5 724.0Q1288 807 1190.5 856.0Q1093 905 992 905Q883 905 826.0 841.0Q769 777 769 653Q769 545 813.0 449.5Q857 354 933.5 281.0Q1010 208 1109.0 166.0Q1208 124 1319 124ZM455 1220Q415 1235 380.5 1255.5Q346 1276 314 1302L372 1362Q395 1347 419.0 1332.5Q443 1318 473 1303ZM727 998 590 1069 644 1148 761 1075ZM1883 -156 1793 -141Q1792 -117 1783.5 -91.0Q1775 -65 1761 -40L1831 16Q1854 -21 1867.5 -64.5Q1881 -108 1883 -156ZM2229 -272 2126 -175 2188 -111 2291 -214ZM617 1446 529 1475Q545 1535 538 1589L628 1603Q635 1525 617 1446ZM2288 43 2169 51 2166 140 2301 131ZM1804 517 1728 605 1800 667 1876 581ZM1940 793 1902 913 1984 939 2019 815ZM1523 1404 1495 1542 1582 1560 1607 1420ZM1797 1570 1733 1635Q1755 1659 1769.5 1685.5Q1784 1712 1790 1740L1874 1726Q1865 1683 1845.5 1645.0Q1826 1607 1797 1570ZM972 508 915 564Q974 626 1004.0 688.0Q1034 750 1034 812Q1034 843 1028.0 883.0Q1022 923 1010 965Q984 1054 984 1120Q984 1190 1017.5 1249.0Q1051 1308 1107.0 1344.0Q1163 1380 1228 1380Q1306 1380 1358.0 1328.5Q1410 1277 1410 1199Q1410 1120 1353.5 1072.5Q1297 1025 1203 1025Q1116 1025 1045.0 1067.0Q974 1109 932.5 1181.0Q891 1253 891 1342Q891 1485 995.0 1579.5Q1099 1674 1280 1685L1285 1605Q1137 1596 1054.0 1525.0Q971 1454 971 1342Q971 1275 1001.0 1221.5Q1031 1168 1083.5 1136.5Q1136 1105 1203 1105Q1262 1105 1296.0 1129.5Q1330 1154 1330 1199Q1330 1243 1301.5 1271.5Q1273 1300 1228 1300Q1164 1300 1114.0 1245.5Q1064 1191 1064 1120Q1064 1098 1069.5 1066.5Q1075 1035 1088 983Q1100 935 1107.0 891.0Q1114 847 1114 812Q1114 658 972 508ZM1190 477Q1190 598 1256.0 666.5Q1322 735 1471 775Q1559 798 1586.0 816.5Q1613 835 1613 872Q1613 890 1608.0 906.0Q1603 922 1586 953Q1546 1026 1546 1085Q1546 1163 1594.5 1211.0Q1643 1259 1719 1259Q1763 1259 1807.5 1240.5Q1852 1222 1914 1176Q1970 1135 2005.0 1119.5Q2040 1104 2072 1104Q2128 1104 2153.0 1144.0Q2178 1184 2178 1266Q2178 1346 2151.5 1419.0Q2125 1492 2064 1576L2128 1624Q2196 1530 2227.0 1443.5Q2258 1357 2258 1266Q2258 1150 2209.5 1087.0Q2161 1024 2072 1024Q2026 1024 1979.0 1044.0Q1932 1064 1867 1111Q1812 1152 1780.5 1165.5Q1749 1179 1719 1179Q1675 1179 1650.5 1155.5Q1626 1132 1626 1085Q1626 1066 1632.5 1045.5Q1639 1025 1657 991Q1677 954 1685.0 927.5Q1693 901 1693 872Q1693 806 1648.5 766.5Q1604 727 1491 698Q1364 665 1317.0 618.5Q1270 572 1270 477ZM1881 160Q1830 160 1784.0 184.0Q1738 208 1674 263Q1625 307 1598.5 321.5Q1572 336 1546 336Q1530 336 1512.5 330.5Q1495 325 1463 308Q1403 277 1354.5 265.0Q1306 253 1252 253Q1227 253 1198.0 256.0Q1169 259 1136 266L1152 345Q1211 333 1256 333Q1300 333 1338.5 344.0Q1377 355 1428 380Q1468 400 1494.5 408.0Q1521 416 1546 416Q1586 416 1626.5 395.0Q1667 374 1726 323Q1782 275 1815.0 257.5Q1848 240 1881 240Q1928 240 1951.0 274.5Q1974 309 1998 414Q2036 577 2105.5 647.5Q2175 718 2306 718V638Q2237 638 2194.0 616.5Q2151 595 2124.5 542.5Q2098 490 2076 396Q2045 263 2001.0 211.5Q1957 160 1881 160Z" fill="#D81B60"/></g>
</svg>