<svg xmlns="http://www.w3.org/2000/svg" viewBox="20 -1790 2560 2180">
<g transform="scale(1,-1)"><path d="M402 -340V-44H495V970H70V1501H573L704 1663Q739 1707 764.5 1723.5Q790 1740 824 1740Q858 1740 883.5 1723.5Q909 1707 944 1663L1075 1501H2154L2478 1194Q2530 1144 2530 1083Q2530 1033 2495.5 1001.5Q2461 970 2406 970H1127V-44H1223V-340ZM707 -123 811 -11 915 -123ZM655 -66V151L754 42ZM967 -66 868 42 967 151ZM811 95 707 208H915ZM191 680Q132 680 132 739V1005H397V739Q397 680 338 680ZM707 295 811 407 915 295ZM655 352V569L754 460ZM967 352 868 460 967 569ZM811 513 707 626H915ZM235 1170V1343H370ZM707 713 811 825 915 713ZM655 770V987L754 878ZM299 1130 415 1279 531 1130ZM587 1183 461 1343H587ZM967 770 868 878 967 987ZM811 931 707 1044H915ZM1411 -114V-29H1494V71H1410V156H2374V71H2290V-29H2373V-114ZM1564 -44H2220V86H1564ZM1707 -206Q1692 -206 1682.0 -196.0Q1672 -186 1672 -170V148L1892 342L2112 148V-170Q2112 -186 2102.0 -196.0Q2092 -206 2077 -206Q2062 -206 2052.0 -196.0Q2042 -186 2042 -170V121L1892 248L1742 121V-170Q1742 -186 1732.0 -196.0Q1722 -206 1707 -206ZM472 -270H1153V-114H1057V1040H2406Q2433 1040 2446.5 1051.0Q2460 1062 2460 1083Q2460 1113 2440 1133L2126 1431H1042L885 1624Q863 1652 850.0 1661.0Q837 1670 824 1670Q811 1670 798.5 1661.0Q786 1652 763 1624L606 1431H140V1040H565V-114H472ZM667 1169V1343H909ZM1166 615Q1153 615 1129.0 616.0Q1105 617 1092 619V1001H1432Q1435 978 1436.5 958.0Q1438 938 1438 921Q1438 832 1402.5 763.0Q1367 694 1306.0 654.5Q1245 615 1166 615ZM741 1130 991 1310V1130ZM1274 717Q1321 750 1344.5 804.0Q1368 858 1368 915H1184V804ZM1892 206Q1837 206 1802.0 240.5Q1767 275 1767 325Q1767 381 1816 430L1857 471V549H1927V441Q1889 416 1865.5 385.0Q1842 354 1842 330Q1842 304 1856.5 286.0Q1871 268 1900 268Q1918 268 1932.5 279.5Q1947 291 1951 315Q1956 344 1979 344Q2004 344 2004 303Q2004 263 1971.5 234.5Q1939 206 1892 206ZM707 1428 824 1569 941 1428ZM1076 1130V1297L1222 1130ZM1757 523V799H2027V523ZM1827 593H1957V729H1827ZM1298 1158 1137 1343H1473ZM1862 764V850H1815L1752 910V1005H2032V910L1969 850H1922V764ZM1384 1130 1557 1312 1734 1130ZM1817 1161 1643 1343H2000ZM1905 1130 2101 1324 2306 1130Z" fill="#EF6C00"/></g>
</svg>