<svg xmlns="http://www.w3.org/2000/svg" viewBox="22 -1590 2556 1780">
<g transform="scale(1,-1)"><path d="M1676 -140Q1618 -140 1555.5 -133.0Q1493 -126 1438.0 -113.5Q1383 -101 1346 -84Q1301 -88 1253.0 -92.0Q1205 -96 1153 -96Q788 -96 544.0 8.0Q300 112 185 310L259 339Q375 160 597.5 72.0Q820 -16 1153 -16Q1497 -16 1740.0 122.5Q1983 261 2100 490Q1965 722 1815.0 870.0Q1665 1018 1485.0 1089.0Q1305 1160 1080 1160Q883 1160 716.0 1091.5Q549 1023 419.5 890.0Q290 757 203 562L126 586Q207 773 328.5 911.5Q450 1050 606.0 1132.5Q762 1215 947 1233Q979 1300 1021.0 1362.0Q1063 1424 1107.5 1471.5Q1152 1519 1189 1540Q1346 1477 1514.0 1338.5Q1682 1200 1842.0 1006.5Q2002 813 2134 584Q2170 636 2226.0 698.5Q2282 761 2341.0 818.0Q2400 875 2447.5 911.5Q2495 948 2515 948Q2528 948 2528 926Q2528 844 2493.5 757.5Q2459 671 2402.5 598.5Q2346 526 2281 484Q2389 415 2455.0 320.0Q2521 225 2521 112Q2521 76 2508 76Q2483 76 2433.0 107.5Q2383 139 2325.0 188.0Q2267 237 2215.5 290.5Q2164 344 2135 389Q2085 309 2020.0 239.5Q1955 170 1882.0 117.0Q1809 64 1736 31Q1792 -1 1821.5 -30.0Q1851 -59 1851 -88Q1851 -116 1814.0 -128.0Q1777 -140 1676 -140ZM173 283Q156 283 141.5 293.0Q127 303 127 321Q127 342 160.5 365.0Q194 388 303 435Q213 469 163.0 491.5Q113 514 92.5 532.0Q72 550 72 569Q72 583 84.5 596.0Q97 609 115 609Q134 609 176.5 589.5Q219 570 266.0 542.0Q313 514 346.0 486.5Q379 459 379 443Q379 426 356.5 399.5Q334 373 300.5 346.0Q267 319 232.0 301.0Q197 283 173 283ZM637 576Q605 576 582.5 598.5Q560 621 560 653Q560 685 582.5 707.5Q605 730 637 730Q669 730 691.5 707.5Q714 685 714 653Q714 622 691.5 599.0Q669 576 637 576ZM818 298 754 347 873 510 863 648 943 654 955 487ZM1469 189Q1373 189 1286.0 229.0Q1199 269 1143.5 338.0Q1088 407 1088 493Q1188 493 1290.0 459.5Q1392 426 1481.5 366.0Q1571 306 1635 226Q1557 189 1469 189ZM2120 447Q1892 516 1637.0 562.5Q1382 609 1106 613V693Q1388 689 1649.5 641.5Q1911 594 2144 523Z" fill="#1E88E5"/></g>
</svg>