<svg xmlns="http://www.w3.org/2000/svg" viewBox="488 -1790 1624 2180">
<g transform="scale(1,-1)"><path d="M538 -340V1437H2062V-340ZM836 0V80H1290V0ZM836 243V324H1764V243ZM618 -260H1982V1357H618ZM836 487V567H1764V487ZM836 730V811H1764V730ZM836 974V1054H1764V974ZM914 1279Q899 1279 888.5 1289.5Q878 1300 878 1316V1349Q878 1417 926.0 1465.5Q974 1514 1042 1514H1078Q1112 1514 1135.0 1538.5Q1158 1563 1158 1597V1598Q1158 1656 1200.0 1698.0Q1242 1740 1300 1740Q1358 1740 1400.0 1698.0Q1442 1656 1442 1598V1597Q1442 1563 1465.0 1538.5Q1488 1514 1522 1514H1558Q1626 1514 1674.0 1465.5Q1722 1417 1722 1349V1316Q1722 1300 1711.5 1289.5Q1701 1279 1686 1279ZM1300 1527Q1329 1527 1349.5 1547.5Q1370 1568 1370 1596Q1370 1625 1349.5 1645.5Q1329 1666 1300 1666Q1271 1666 1250.5 1645.5Q1230 1625 1230 1596Q1230 1568 1251.0 1547.5Q1272 1527 1300 1527Z" fill="#43A047"/></g>
</svg>