<svg xmlns="http://www.w3.org/2000/svg" viewBox="162 -1790 2276 2180">
<g transform="scale(1,-1)"><path d="M1090 1026 1145 1085Q1313 930 1486.5 758.0Q1660 586 1824.5 405.5Q1989 225 2133.5 44.5Q2278 -136 2388 -307Q2360 -326 2321.5 -333.0Q2283 -340 2234 -340Q2131 -340 1990.5 -296.5Q1850 -253 1696.5 -178.5Q1543 -104 1398.0 -11.5Q1253 81 1140 179Q1086 226 1027.5 282.0Q969 338 920.0 391.0Q871 444 843 481L983 659Q1016 701 1016 739Q1016 776 987 802L925 860L980 918L1041 861Q1097 809 1097 741Q1097 707 1085.5 677.0Q1074 647 1045 609L944 481Q971 451 1012.5 408.5Q1054 366 1101.5 321.0Q1149 276 1191 238Q1301 141 1441.5 51.5Q1582 -38 1729.0 -108.0Q1876 -178 2008.5 -218.5Q2141 -259 2235 -259Q2248 -259 2261.0 -258.5Q2274 -258 2284 -257L2271 -280Q2131 -64 1941.0 157.5Q1751 379 1533.0 598.5Q1315 818 1090 1026ZM791 855 245 1379Q227 1397 219.5 1408.5Q212 1420 212 1436Q212 1458 237.0 1495.0Q262 1532 301.5 1574.0Q341 1616 384.5 1654.0Q428 1692 467.0 1716.0Q506 1740 528 1740Q548 1740 562.0 1731.0Q576 1722 596 1701L1181 1109L924 833Q902 809 876 809Q838 809 791 855ZM495 1443Q516 1443 531.0 1458.0Q546 1473 546 1495Q546 1517 531.0 1532.0Q516 1547 495 1547Q473 1547 458.0 1532.0Q443 1517 443 1495Q443 1473 458.0 1458.0Q473 1443 495 1443ZM937 1024Q958 1024 973.0 1039.0Q988 1054 988 1076Q988 1098 973.0 1113.0Q958 1128 937 1128Q915 1128 900.0 1113.0Q885 1098 885 1076Q885 1054 900.0 1039.0Q915 1024 937 1024Z" fill="#546E7A"/></g>
</svg>