<svg xmlns="http://www.w3.org/2000/svg" viewBox="450 -1790 1700 2180">
<g transform="scale(1,-1)"><path d="M1300 -340Q1123 -340 976.5 -279.0Q830 -218 723.0 -106.5Q616 5 558.0 157.0Q500 309 500 491Q500 630 536.5 755.0Q573 880 639.0 975.0Q705 1070 794 1120Q787 1083 782.0 1027.0Q777 971 777 931Q777 843 802.0 788.0Q827 733 882 688Q882 800 915.5 880.5Q949 961 998.0 1024.5Q1047 1088 1096.0 1148.0Q1145 1208 1178.5 1277.5Q1212 1347 1212 1441Q1212 1524 1183.5 1589.5Q1155 1655 1096 1719Q1119 1730 1146.5 1735.0Q1174 1740 1206 1740Q1308 1740 1397.0 1692.5Q1486 1645 1553.5 1560.5Q1621 1476 1659.5 1363.5Q1698 1251 1698 1121Q1698 1015 1679.5 945.5Q1661 876 1661 818Q1661 748 1699.0 702.0Q1737 656 1801 656Q1849 656 1891.5 683.5Q1934 711 1954 759Q1999 715 2032.0 652.0Q2065 589 2082.5 516.0Q2100 443 2100 367Q2100 219 2039.0 91.0Q1978 -37 1869.0 -134.0Q1760 -231 1614.5 -285.5Q1469 -340 1300 -340ZM1300 -232Q1419 -232 1514.0 -189.0Q1609 -146 1664.5 -67.5Q1720 11 1720 115Q1720 197 1689.0 254.0Q1658 311 1612.5 358.5Q1567 406 1521.0 457.0Q1475 508 1444.0 576.5Q1413 645 1413 745Q1413 797 1422.5 858.0Q1432 919 1448.0 975.0Q1464 1031 1485 1068Q1357 1010 1263.5 923.0Q1170 836 1119.0 737.0Q1068 638 1068 542Q1068 481 1084.5 437.5Q1101 394 1117.5 363.0Q1134 332 1134 306Q1134 287 1121.5 272.5Q1109 258 1084 258Q1044 258 1020.5 301.0Q997 344 989 423Q961 399 936.0 353.0Q911 307 895.5 249.0Q880 191 880 131Q880 23 933.0 -58.5Q986 -140 1081.0 -186.0Q1176 -232 1300 -232Z" fill="#F4511E"/></g>
</svg>