<svg xmlns="http://www.w3.org/2000/svg" viewBox="210 -1790 2180 2180">
<g transform="scale(1,-1)"><path d="M1301 -340Q1514 -340 1702.0 -258.5Q1890 -177 2033.5 -33.5Q2177 110 2258.5 298.5Q2340 487 2340 700Q2340 913 2258.5 1101.5Q2177 1290 2033.5 1433.5Q1890 1577 1702.0 1658.5Q1514 1740 1301 1740Q1087 1740 898.5 1658.5Q710 1577 566.5 1433.5Q423 1290 341.5 1101.5Q260 913 260 700Q260 487 341.5 298.5Q423 110 566.5 -33.5Q710 -177 898.5 -258.5Q1087 -340 1301 -340ZM551 51Q571 51 584.5 65.0Q598 79 598 98Q598 118 584.5 131.5Q571 145 551 145Q532 145 518.0 131.5Q504 118 504 98Q504 79 518.0 65.0Q532 51 551 51ZM460 252Q480 252 493.5 266.0Q507 280 507 299Q507 319 493.5 332.5Q480 346 460 346Q441 346 427.0 332.5Q413 319 413 299Q413 280 427.0 266.0Q441 252 460 252ZM881 -150Q901 -150 914.5 -136.0Q928 -122 928 -103Q928 -83 914.5 -69.5Q901 -56 881 -56Q862 -56 848.0 -69.5Q834 -83 834 -103Q834 -122 848.0 -136.0Q862 -150 881 -150ZM762 51Q743 51 729.0 65.0Q715 79 715 98Q715 118 729.0 131.5Q743 145 762 145Q782 145 795.5 131.5Q809 118 809 98Q809 79 795.5 65.0Q782 51 762 51ZM370 452Q390 452 403.5 466.0Q417 480 417 499Q417 519 403.5 532.5Q390 546 370 546Q351 546 337.0 532.5Q323 519 323 499Q323 480 337.0 466.0Q351 452 370 452ZM671 252Q652 252 638.0 266.0Q624 280 624 299Q624 319 638.0 332.5Q652 346 671 346Q691 346 704.5 332.5Q718 319 718 299Q718 280 704.5 266.0Q691 252 671 252ZM1092 -150Q1073 -150 1059.0 -136.0Q1045 -122 1045 -103Q1045 -83 1059.0 -69.5Q1073 -56 1092 -56Q1112 -56 1125.5 -69.5Q1139 -83 1139 -103Q1139 -122 1125.5 -136.0Q1112 -150 1092 -150ZM551 452Q532 452 518.0 466.0Q504 480 504 499Q504 519 518.0 532.5Q532 546 551 546Q571 546 584.5 532.5Q598 519 598 499Q598 480 584.5 466.0Q571 452 551 452ZM972 51Q953 51 939.0 65.0Q925 79 925 98Q925 118 939.0 131.5Q953 145 972 145Q992 145 1005.5 131.5Q1019 118 1019 98Q1019 79 1005.5 65.0Q992 51 972 51ZM460 653Q441 653 427.0 667.0Q413 681 413 700Q413 720 427.0 733.5Q441 747 460 747Q480 747 493.5 733.5Q507 720 507 700Q507 681 493.5 667.0Q480 653 460 653ZM881 252Q862 252 848.0 266.0Q834 280 834 299Q834 319 848.0 332.5Q862 346 881 346Q901 346 914.5 332.5Q928 319 928 299Q928 280 914.5 266.0Q901 252 881 252ZM1300 -150Q1281 -150 1267.0 -136.0Q1253 -122 1253 -103Q1253 -83 1267.0 -69.5Q1281 -56 1300 -56Q1320 -56 1333.5 -69.5Q1347 -83 1347 -103Q1347 -122 1333.5 -136.0Q1320 -150 1300 -150ZM762 452Q743 452 729.0 466.0Q715 480 715 499Q715 519 729.0 532.5Q743 546 762 546Q782 546 795.5 532.5Q809 519 809 499Q809 480 795.5 466.0Q782 452 762 452ZM370 854Q390 854 403.5 868.0Q417 882 417 901Q417 921 403.5 934.5Q390 948 370 948Q351 948 337.0 934.5Q323 921 323 901Q323 882 337.0 868.0Q351 854 370 854ZM1180 51Q1161 51 1147.0 65.0Q1133 79 1133 98Q1133 118 1147.0 131.5Q1161 145 1180 145Q1200 145 1213.5 131.5Q1227 118 1227 98Q1227 79 1213.5 65.0Q1200 51 1180 51ZM671 653Q652 653 638.0 667.0Q624 681 624 700Q624 720 638.0 733.5Q652 747 671 747Q691 747 704.5 733.5Q718 720 718 700Q718 681 704.5 667.0Q691 653 671 653ZM1092 252Q1073 252 1059.0 266.0Q1045 280 1045 299Q1045 319 1059.0 332.5Q1073 346 1092 346Q1112 346 1125.5 332.5Q1139 319 1139 299Q1139 280 1125.5 266.0Q1112 252 1092 252ZM1511 -150Q1492 -150 1478.0 -136.0Q1464 -122 1464 -103Q1464 -83 1478.0 -69.5Q1492 -56 1511 -56Q1531 -56 1544.5 -69.5Q1558 -83 1558 -103Q1558 -122 1544.5 -136.0Q1531 -150 1511 -150ZM551 854Q532 854 518.0 868.0Q504 882 504 901Q504 921 518.0 934.5Q532 948 551 948Q571 948 584.5 934.5Q598 921 598 901Q598 882 584.5 868.0Q571 854 551 854ZM972 452Q953 452 939.0 466.0Q925 480 925 499Q925 519 939.0 532.5Q953 546 972 546Q992 546 1005.5 532.5Q1019 519 1019 499Q1019 480 1005.5 466.0Q992 452 972 452ZM1391 51Q1372 51 1358.0 65.0Q1344 79 1344 98Q1344 118 1358.0 131.5Q1372 145 1391 145Q1411 145 1424.5 131.5Q1438 118 1438 98Q1438 79 1424.5 65.0Q1411 51 1391 51ZM460 1054Q480 1054 493.5 1068.0Q507 1082 507 1101Q507 1121 493.5 1134.5Q480 1148 460 1148Q441 1148 427.0 1134.5Q413 1121 413 1101Q413 1082 427.0 1068.0Q441 1054 460 1054ZM881 653Q862 653 848.0 667.0Q834 681 834 700Q834 720 848.0 733.5Q862 747 881 747Q901 747 914.5 733.5Q928 720 928 700Q928 681 914.5 667.0Q901 653 881 653ZM1300 252Q1281 252 1267.0 266.0Q1253 280 1253 299Q1253 319 1267.0 332.5Q1281 346 1300 346Q1320 346 1333.5 332.5Q1347 319 1347 299Q1347 280 1333.5 266.0Q1320 252 1300 252ZM1721 -150Q1741 -150 1754.5 -136.0Q1768 -122 1768 -103Q1768 -83 1754.5 -69.5Q1741 -56 1721 -56Q1702 -56 1688.0 -69.5Q1674 -83 1674 -103Q1674 -122 1688.0 -136.0Q1702 -150 1721 -150ZM762 854Q743 854 729.0 868.0Q715 882 715 901Q715 921 729.0 934.5Q743 948 762 948Q782 948 795.5 934.5Q809 921 809 901Q809 882 795.5 868.0Q782 854 762 854ZM1180 452Q1161 452 1147.0 466.0Q1133 480 1133 499Q1133 519 1147.0 532.5Q1161 546 1180 546Q1200 546 1213.5 532.5Q1227 519 1227 499Q1227 480 1213.5 466.0Q1200 452 1180 452ZM1601 51Q1582 51 1568.0 65.0Q1554 79 1554 98Q1554 118 1568.0 131.5Q1582 145 1601 145Q1621 145 1634.5 131.5Q1648 118 1648 98Q1648 79 1634.5 65.0Q1621 51 1601 51ZM671 1054Q652 1054 638.0 1068.0Q624 1082 624 1101Q624 1121 638.0 1134.5Q652 1148 671 1148Q691 1148 704.5 1134.5Q718 1121 718 1101Q718 1082 704.5 1068.0Q691 1054 671 1054ZM1092 653Q1073 653 1059.0 667.0Q1045 681 1045 700Q1045 720 1059.0 733.5Q1073 747 1092 747Q1112 747 1125.5 733.5Q1139 720 1139 700Q1139 681 1125.5 667.0Q1112 653 1092 653ZM1511 252Q1492 252 1478.0 266.0Q1464 280 1464 299Q1464 319 1478.0 332.5Q1492 346 1511 346Q1531 346 1544.5 332.5Q1558 319 1558 299Q1558 280 1544.5 266.0Q1531 252 1511 252ZM551 1255Q571 1255 584.5 1269.0Q598 1283 598 1302Q598 1322 584.5 1335.5Q571 1349 551 1349Q532 1349 518.0 1335.5Q504 1322 504 1302Q504 1283 518.0 1269.0Q532 1255 551 1255ZM972 854Q953 854 939.0 868.0Q925 882 925 901Q925 921 939.0 934.5Q953 948 972 948Q992 948 1005.5 934.5Q1019 921 1019 901Q1019 882 1005.5 868.0Q992 854 972 854ZM1391 452Q1372 452 1358.0 466.0Q1344 480 1344 499Q1344 519 1358.0 532.5Q1372 546 1391 546Q1411 546 1424.5 532.5Q1438 519 1438 499Q1438 480 1424.5 466.0Q1411 452 1391 452ZM1812 51Q1793 51 1779.0 65.0Q1765 79 1765 98Q1765 118 1779.0 131.5Q1793 145 1812 145Q1832 145 1845.5 131.5Q1859 118 1859 98Q1859 79 1845.5 65.0Q1832 51 1812 51ZM881 1054Q862 1054 848.0 1068.0Q834 1082 834 1101Q834 1121 848.0 1134.5Q862 1148 881 1148Q901 1148 914.5 1134.5Q928 1121 928 1101Q928 1082 914.5 1068.0Q901 1054 881 1054ZM1301 -260Q1104 -260 930.0 -184.5Q756 -109 623.5 23.5Q491 156 415.5 329.5Q340 503 340 700Q340 897 415.5 1070.5Q491 1244 623.5 1376.5Q756 1509 930.0 1584.5Q1104 1660 1301 1660Q1498 1660 1671.5 1584.5Q1845 1509 1977.0 1376.5Q2109 1244 2184.5 1070.5Q2260 897 2260 700Q2260 503 2184.5 329.5Q2109 156 1977.0 23.5Q1845 -109 1671.5 -184.5Q1498 -260 1301 -260ZM1300 653Q1281 653 1267.0 667.0Q1253 681 1253 700Q1253 720 1267.0 733.5Q1281 747 1300 747Q1320 747 1333.5 733.5Q1347 720 1347 700Q1347 681 1333.5 667.0Q1320 653 1300 653ZM1721 252Q1702 252 1688.0 266.0Q1674 280 1674 299Q1674 319 1688.0 332.5Q1702 346 1721 346Q1741 346 1754.5 332.5Q1768 319 1768 299Q1768 280 1754.5 266.0Q1741 252 1721 252ZM762 1255Q743 1255 729.0 1269.0Q715 1283 715 1302Q715 1322 729.0 1335.5Q743 1349 762 1349Q782 1349 795.5 1335.5Q809 1322 809 1302Q809 1283 795.5 1269.0Q782 1255 762 1255ZM1180 854Q1161 854 1147.0 868.0Q1133 882 1133 901Q1133 921 1147.0 934.5Q1161 948 1180 948Q1200 948 1213.5 934.5Q1227 921 1227 901Q1227 882 1213.5 868.0Q1200 854 1180 854ZM1601 452Q1582 452 1568.0 466.0Q1554 480 1554 499Q1554 519 1568.0 532.5Q1582 546 1601 546Q1621 546 1634.5 532.5Q1648 519 1648 499Q1648 480 1634.5 466.0Q1621 452 1601 452ZM2022 51Q2042 51 2055.5 65.0Q2069 79 2069 98Q2069 118 2055.5 131.5Q2042 145 2022 145Q2003 145 1989.0 131.5Q1975 118 1975 98Q1975 79 1989.0 65.0Q2003 51 2022 51ZM1092 1054Q1073 1054 1059.0 1068.0Q1045 1082 1045 1101Q1045 1121 1059.0 1134.5Q1073 1148 1092 1148Q1112 1148 1125.5 1134.5Q1139 1121 1139 1101Q1139 1082 1125.5 1068.0Q1112 1054 1092 1054ZM1511 653Q1492 653 1478.0 667.0Q1464 681 1464 700Q1464 720 1478.0 733.5Q1492 747 1511 747Q1531 747 1544.5 733.5Q1558 720 1558 700Q1558 681 1544.5 667.0Q1531 653 1511 653ZM1932 252Q1913 252 1899.0 266.0Q1885 280 1885 299Q1885 319 1899.0 332.5Q1913 346 1932 346Q1952 346 1965.5 332.5Q1979 319 1979 299Q1979 280 1965.5 266.0Q1952 252 1932 252ZM972 1255Q953 1255 939.0 1269.0Q925 1283 925 1302Q925 1322 939.0 1335.5Q953 1349 972 1349Q992 1349 1005.5 1335.5Q1019 1322 1019 1302Q1019 1283 1005.5 1269.0Q992 1255 972 1255ZM1391 854Q1372 854 1358.0 868.0Q1344 882 1344 901Q1344 921 1358.0 934.5Q1372 948 1391 948Q1411 948 1424.5 934.5Q1438 921 1438 901Q1438 882 1424.5 868.0Q1411 854 1391 854ZM1812 452Q1793 452 1779.0 466.0Q1765 480 1765 499Q1765 519 1779.0 532.5Q1793 546 1812 546Q1832 546 1845.5 532.5Q1859 519 1859 499Q1859 480 1845.5 466.0Q1832 452 1812 452ZM881 1456Q901 1456 914.5 1470.0Q928 1484 928 1503Q928 1523 914.5 1536.5Q901 1550 881 1550Q862 1550 848.0 1536.5Q834 1523 834 1503Q834 1484 848.0 1470.0Q862 1456 881 1456ZM1300 1054Q1281 1054 1267.0 1068.0Q1253 1082 1253 1101Q1253 1121 1267.0 1134.5Q1281 1148 1300 1148Q1320 1148 1333.5 1134.5Q1347 1121 1347 1101Q1347 1082 1333.5 1068.0Q1320 1054 1300 1054ZM1721 653Q1702 653 1688.0 667.0Q1674 681 1674 700Q1674 720 1688.0 733.5Q1702 747 1721 747Q1741 747 1754.5 733.5Q1768 720 1768 700Q1768 681 1754.5 667.0Q1741 653 1721 653ZM2142 252Q2162 252 2175.5 266.0Q2189 280 2189 299Q2189 319 2175.5 332.5Q2162 346 2142 346Q2123 346 2109.0 332.5Q2095 319 2095 299Q2095 280 2109.0 266.0Q2123 252 2142 252ZM1180 1255Q1161 1255 1147.0 1269.0Q1133 1283 1133 1302Q1133 1322 1147.0 1335.5Q1161 1349 1180 1349Q1200 1349 1213.5 1335.5Q1227 1322 1227 1302Q1227 1283 1213.5 1269.0Q1200 1255 1180 1255ZM1601 854Q1582 854 1568.0 868.0Q1554 882 1554 901Q1554 921 1568.0 934.5Q1582 948 1601 948Q1621 948 1634.5 934.5Q1648 921 1648 901Q1648 882 1634.5 868.0Q1621 854 1601 854ZM2022 452Q2003 452 1989.0 466.0Q1975 480 1975 499Q1975 519 1989.0 532.5Q2003 546 2022 546Q2042 546 2055.5 532.5Q2069 519 2069 499Q2069 480 2055.5 466.0Q2042 452 2022 452ZM1092 1456Q1073 1456 1059.0 1470.0Q1045 1484 1045 1503Q1045 1523 1059.0 1536.5Q1073 1550 1092 1550Q1112 1550 1125.5 1536.5Q1139 1523 1139 1503Q1139 1484 1125.5 1470.0Q1112 1456 1092 1456ZM1511 1054Q1492 1054 1478.0 1068.0Q1464 1082 1464 1101Q1464 1121 1478.0 1134.5Q1492 1148 1511 1148Q1531 1148 1544.5 1134.5Q1558 1121 1558 1101Q1558 1082 1544.5 1068.0Q1531 1054 1511 1054ZM1932 653Q1913 653 1899.0 667.0Q1885 681 1885 700Q1885 720 1899.0 733.5Q1913 747 1932 747Q1952 747 1965.5 733.5Q1979 720 1979 700Q1979 681 1965.5 667.0Q1952 653 1932 653ZM1391 1255Q1372 1255 1358.0 1269.0Q1344 1283 1344 1302Q1344 1322 1358.0 1335.5Q1372 1349 1391 1349Q1411 1349 1424.5 1335.5Q1438 1322 1438 1302Q1438 1283 1424.5 1269.0Q1411 1255 1391 1255ZM1812 854Q1793 854 1779.0 868.0Q1765 882 1765 901Q1765 921 1779.0 934.5Q1793 948 1812 948Q1832 948 1845.5 934.5Q1859 921 1859 901Q1859 882 1845.5 868.0Q1832 854 1812 854ZM2230 452Q2250 452 2263.5 466.0Q2277 480 2277 499Q2277 519 2263.5 532.5Q2250 546 2230 546Q2211 546 2197.0 532.5Q2183 519 2183 499Q2183 480 2197.0 466.0Q2211 452 2230 452ZM1300 1456Q1281 1456 1267.0 1470.0Q1253 1484 1253 1503Q1253 1523 1267.0 1536.5Q1281 1550 1300 1550Q1320 1550 1333.5 1536.5Q1347 1523 1347 1503Q1347 1484 1333.5 1470.0Q1320 1456 1300 1456ZM1721 1054Q1702 1054 1688.0 1068.0Q1674 1082 1674 1101Q1674 1121 1688.0 1134.5Q1702 1148 1721 1148Q1741 1148 1754.5 1134.5Q1768 1121 1768 1101Q1768 1082 1754.5 1068.0Q1741 1054 1721 1054ZM2142 653Q2123 653 2109.0 667.0Q2095 681 2095 700Q2095 720 2109.0 733.5Q2123 747 2142 747Q2162 747 2175.5 733.5Q2189 720 2189 700Q2189 681 2175.5 667.0Q2162 653 2142 653ZM1601 1255Q1582 1255 1568.0 1269.0Q1554 1283 1554 1302Q1554 1322 1568.0 1335.5Q1582 1349 1601 1349Q1621 1349 1634.5 1335.5Q1648 1322 1648 1302Q1648 1283 1634.5 1269.0Q1621 1255 1601 1255ZM2022 854Q2003 854 1989.0 868.0Q1975 882 1975 901Q1975 921 1989.0 934.5Q2003 948 2022 948Q2042 948 2055.5 934.5Q2069 921 2069 901Q2069 882 2055.5 868.0Q2042 854 2022 854ZM1511 1456Q1492 1456 1478.0 1470.0Q1464 1484 1464 1503Q1464 1523 1478.0 1536.5Q1492 1550 1511 1550Q1531 1550 1544.5 1536.5Q1558 1523 1558 1503Q1558 1484 1544.5 1470.0Q1531 1456 1511 1456ZM1932 1054Q1913 1054 1899.0 1068.0Q1885 1082 1885 1101Q1885 1121 1899.0 1134.5Q1913 1148 1932 1148Q1952 1148 1965.5 1134.5Q1979 1121 1979 1101Q1979 1082 1965.5 1068.0Q1952 1054 1932 1054ZM1812 1255Q1793 1255 1779.0 1269.0Q1765 1283 1765 1302Q1765 1322 1779.0 1335.5Q1793 1349 1812 1349Q1832 1349 1845.5 1335.5Q1859 1322 1859 1302Q1859 1283 1845.5 1269.0Q1832 1255 1812 1255ZM2230 854Q2250 854 2263.5 868.0Q2277 882 2277 901Q2277 921 2263.5 934.5Q2250 948 2230 948Q2211 948 2197.0 934.5Q2183 921 2183 901Q2183 882 2197.0 868.0Q2211 854 2230 854ZM1721 1456Q1741 1456 1754.5 1470.0Q1768 1484 1768 1503Q1768 1523 1754.5 1536.5Q1741 1550 1721 1550Q1702 1550 1688.0 1536.5Q1674 1523 1674 1503Q1674 1484 1688.0 1470.0Q1702 1456 1721 1456ZM2142 1054Q2162 1054 2175.5 1068.0Q2189 1082 2189 1101Q2189 1121 2175.5 1134.5Q2162 1148 2142 1148Q2123 1148 2109.0 1134.5Q2095 1121 2095 1101Q2095 1082 2109.0 1068.0Q2123 1054 2142 1054ZM2022 1255Q2042 1255 2055.5 1269.0Q2069 1283 2069 1302Q2069 1322 2055.5 1335.5Q2042 1349 2022 1349Q2003 1349 1989.0 1335.5Q1975 1322 1975 1302Q1975 1283 1989.0 1269.0Q2003 1255 2022 1255Z" fill="#F9A825"/></g>
</svg>