<svg xmlns="http://www.w3.org/2000/svg" viewBox="260 -1740 2080 2080">
<g transform="scale(1,-1)"><path d="M1300 -290Q1095 -290 915.5 -213.0Q736 -136 600.0 0.0Q464 136 387.0 315.5Q310 495 310 700Q310 905 387.0 1084.5Q464 1264 600.0 1400.0Q736 1536 915.5 1613.0Q1095 1690 1300 1690Q1505 1690 1684.5 1613.0Q1864 1536 2000.0 1400.0Q2136 1264 2213.0 1084.5Q2290 905 2290 700Q2290 495 2213.0 315.5Q2136 136 2000.0 0.0Q1864 -136 1684.5 -213.0Q1505 -290 1300 -290ZM1966 -271Q1889 -271 1823 -205L1758 -139L1814 -83L1878 -148Q1923 -195 1969 -195Q2000 -195 2038.0 -172.0Q2076 -149 2111.5 -113.5Q2147 -78 2170.0 -40.0Q2193 -2 2193 29Q2193 53 2181.5 75.5Q2170 98 2147 121L2083 186L2139 242L2204 177Q2270 111 2270 32Q2270 -19 2241.0 -72.0Q2212 -125 2166.0 -170.0Q2120 -215 2067.0 -243.0Q2014 -271 1966 -271ZM1300 -132Q1473 -132 1623.5 -67.5Q1774 -3 1889.0 111.5Q2004 226 2068.5 377.0Q2133 528 2133 700Q2133 873 2068.5 1023.5Q2004 1174 1889.0 1288.5Q1774 1403 1623.5 1467.5Q1473 1532 1300 1532Q1128 1532 977.0 1467.5Q826 1403 711.0 1288.5Q596 1174 531.5 1023.5Q467 873 467 700Q467 528 531.5 377.0Q596 226 711.0 111.5Q826 -3 977.0 -67.5Q1128 -132 1300 -132ZM461 1158 396 1223Q330 1289 330 1368Q330 1419 359.0 1472.0Q388 1525 434.0 1570.0Q480 1615 533.0 1643.0Q586 1671 634 1671Q711 1671 777 1605L842 1539L786 1483L722 1548Q677 1595 631 1595Q600 1595 562.0 1572.0Q524 1549 488.5 1513.5Q453 1478 430.0 1440.0Q407 1402 407 1371Q407 1347 419.0 1324.5Q431 1302 453 1279L517 1214ZM995 88Q980 88 965 97Q958 123 946.0 150.5Q934 178 920 208Q920 222 933.0 229.5Q946 237 961 237Q991 237 1015.0 209.0Q1039 181 1039 146Q1039 126 1029.0 107.0Q1019 88 995 88ZM801 415Q748 415 726.0 427.0Q704 439 704 476Q704 508 720.0 530.5Q736 553 771 553Q802 553 836.0 540.0Q870 527 894.0 507.0Q918 487 918 465Q918 443 888.0 429.0Q858 415 801 415ZM1065 307Q1043 307 1034.0 325.5Q1025 344 1025 364Q1025 421 1073 421Q1094 421 1115.0 408.0Q1136 395 1136 372Q1136 347 1112.0 327.0Q1088 307 1065 307ZM680 676Q639 676 639 803Q639 897 662.0 952.5Q685 1008 722 1008Q753 1008 755 979Q727 918 714.0 873.0Q701 828 701 757Q701 741 701.5 725.5Q702 710 703 694Q696 676 680 676ZM1354 133Q1322 133 1283.0 151.0Q1244 169 1244 219Q1244 246 1262 271Q1278 305 1294.5 324.0Q1311 343 1357 343Q1406 343 1433.0 320.5Q1460 298 1460 248Q1460 194 1431.0 163.5Q1402 133 1354 133ZM895 639Q867 639 857.5 656.5Q848 674 848 697Q848 728 862.5 741.0Q877 754 896 754Q925 754 941.5 733.5Q958 713 958 691Q958 666 938.0 652.5Q918 639 895 639ZM1601 78Q1579 78 1568.0 94.0Q1557 110 1557 129Q1557 152 1573.0 164.0Q1589 176 1608 176Q1631 176 1645.0 162.5Q1659 149 1659 129Q1659 107 1640.0 92.5Q1621 78 1601 78ZM1301 500Q1192 500 1104 553Q1104 616 1129.0 650.5Q1154 685 1215 685Q1258 685 1298.0 668.5Q1338 652 1364.0 624.0Q1390 596 1390 562Q1390 500 1301 500ZM1084 749Q1060 749 1020.5 777.5Q981 806 944.0 847.5Q907 889 887 927Q891 953 911.0 970.0Q931 987 958 987Q976 959 1005.5 917.0Q1035 875 1066.0 834.5Q1097 794 1117 772Q1114 761 1104.0 755.0Q1094 749 1084 749ZM1764 269Q1722 269 1673.5 283.5Q1625 298 1590.5 319.0Q1556 340 1556 358Q1556 382 1588 382Q1695 342 1808 322Q1814 312 1814 301Q1814 283 1799.0 276.0Q1784 269 1764 269ZM903 1103Q878 1116 873 1139Q896 1198 930.0 1240.5Q964 1283 997 1283Q1012 1283 1030.0 1272.5Q1048 1262 1058 1242Q1043 1188 1002.0 1152.0Q961 1116 903 1103ZM1577 593Q1490 719 1321 849Q1321 872 1339.0 885.5Q1357 899 1378 899Q1409 899 1446.0 872.5Q1483 846 1516.0 805.0Q1549 764 1570.5 719.5Q1592 675 1592 639Q1592 619 1590.0 606.0Q1588 593 1577 593ZM1759 438Q1716 438 1688.0 473.5Q1660 509 1660 564Q1660 598 1675.0 611.0Q1690 624 1712 624Q1746 624 1771.5 602.0Q1797 580 1811.5 550.0Q1826 520 1826 495Q1826 461 1804.0 449.5Q1782 438 1759 438ZM1164 902Q1130 902 1130 933Q1130 1004 1150.0 1064.5Q1170 1125 1203.0 1162.0Q1236 1199 1274 1199Q1302 1199 1333.0 1182.0Q1364 1165 1385.5 1141.0Q1407 1117 1407 1095Q1407 1082 1376.0 1051.0Q1345 1020 1301.5 985.5Q1258 951 1219.0 926.5Q1180 902 1164 902ZM1211 1276Q1191 1276 1177.0 1290.0Q1163 1304 1163 1323Q1163 1352 1183.5 1374.0Q1204 1396 1229 1396Q1251 1396 1267.0 1380.0Q1283 1364 1283 1342Q1283 1318 1260.5 1297.0Q1238 1276 1211 1276ZM1948 555Q1931 555 1916.5 566.0Q1902 577 1902 607Q1902 629 1912.0 648.0Q1922 667 1941 667Q1958 667 1978.5 650.0Q1999 633 1999 606Q1999 588 1986.5 571.5Q1974 555 1948 555ZM1824 714Q1799 714 1787.5 727.0Q1776 740 1776 777Q1776 806 1784.0 822.0Q1792 838 1822 838Q1843 838 1854.5 826.5Q1866 815 1866 782Q1866 744 1856.5 729.0Q1847 714 1824 714ZM1519 1056Q1507 1056 1504 1066Q1504 1102 1500.0 1135.5Q1496 1169 1488 1194Q1471 1245 1465.5 1268.0Q1460 1291 1460 1302Q1460 1327 1478 1327Q1497 1327 1514.0 1301.0Q1531 1275 1542.5 1235.5Q1554 1196 1554 1154Q1554 1119 1546.5 1087.5Q1539 1056 1519 1056ZM1699 930Q1644 930 1641 981Q1670 1007 1702.0 1031.0Q1734 1055 1767 1077Q1839 1077 1839 1039Q1839 1015 1816.5 990.0Q1794 965 1762.0 947.5Q1730 930 1699 930Z" fill="#EF6C00"/></g>
</svg>