<svg xmlns="http://www.w3.org/2000/svg" viewBox="55 -1690 2490 1980">
<g transform="scale(1,-1)"><path d="M596 -240Q550 -221 489.5 -176.5Q429 -132 366.5 -72.5Q304 -13 248.5 51.0Q193 115 154.5 173.5Q116 232 105 274Q235 286 327.0 305.0Q419 324 480.5 359.0Q542 394 579.5 453.0Q617 512 638 603Q664 719 706.5 783.0Q749 847 810.5 873.0Q872 899 954 899Q1064 899 1126.5 921.0Q1189 943 1223.5 1006.0Q1258 1069 1282 1191Q1302 1295 1336.5 1333.5Q1371 1372 1429 1372Q1466 1372 1509.5 1360.0Q1553 1348 1595.0 1335.5Q1637 1323 1670 1323Q1730 1323 1771.5 1367.5Q1813 1412 1837.0 1484.5Q1861 1557 1865 1640Q1977 1640 2092.5 1605.0Q2208 1570 2312.0 1510.0Q2416 1450 2495 1374Q2452 1228 2395.0 1128.5Q2338 1029 2253.0 965.5Q2168 902 2039 863Q1976 844 1938.0 827.5Q1900 811 1876.0 787.5Q1852 764 1831.5 725.0Q1811 686 1782 623Q1750 552 1711.5 508.0Q1673 464 1617.0 440.0Q1561 416 1474 403Q1389 391 1330.5 371.5Q1272 352 1228.0 319.0Q1184 286 1144.0 232.5Q1104 179 1057 98Q1000 1 953.0 -60.0Q906 -121 856.5 -156.5Q807 -192 745.0 -210.5Q683 -229 596 -240ZM476 -92 402 -27Q472 -10 543.5 19.5Q615 49 675.0 84.5Q735 120 772.0 154.0Q809 188 809 214Q809 222 801.5 228.5Q794 235 783 235Q771 235 748.5 223.5Q726 212 693 192Q638 160 567.5 130.5Q497 101 427.0 82.0Q357 63 303 62L266 132Q315 136 387.0 154.5Q459 173 528.0 198.0Q597 223 636 244Q681 269 724.5 298.0Q768 327 801.5 372.0Q835 417 847 487Q862 572 894.0 617.5Q926 663 998.5 682.0Q1071 701 1205 705Q1328 709 1390.5 729.5Q1453 750 1479.0 800.5Q1505 851 1517 945Q1528 1028 1586.0 1072.0Q1644 1116 1758 1121Q1872 1127 1948.5 1171.5Q2025 1216 2072.0 1309.5Q2119 1403 2146 1556L2263 1492Q2212 1326 2155.0 1226.5Q2098 1127 2024.0 1081.5Q1950 1036 1846 1030Q1636 1018 1614 867Q1602 783 1583.0 732.0Q1564 681 1528.0 653.5Q1492 626 1428.5 614.0Q1365 602 1264 596Q1148 589 1086.0 567.5Q1024 546 995.5 496.5Q967 447 951 354Q921 180 803.0 71.5Q685 -37 476 -92ZM604 -158Q675 -148 725.0 -132.5Q775 -117 816.0 -85.5Q857 -54 899.5 3.0Q942 60 997 153Q1049 242 1095.0 300.0Q1141 358 1192.0 394.0Q1243 430 1308.5 450.0Q1374 470 1465 483Q1543 494 1586.5 511.5Q1630 529 1658.5 565.0Q1687 601 1717 669Q1749 739 1775.5 783.5Q1802 828 1833.5 855.5Q1865 883 1911.5 903.0Q1958 923 2028 944Q2139 978 2208.5 1029.5Q2278 1081 2324.0 1158.0Q2370 1235 2410 1343Q2319 1429 2189.0 1484.0Q2059 1539 1931 1558Q1922 1473 1888.0 1401.0Q1854 1329 1801.5 1286.0Q1749 1243 1682 1243Q1644 1243 1597.5 1255.5Q1551 1268 1507.5 1280.0Q1464 1292 1435 1292Q1403 1292 1388.0 1262.5Q1373 1233 1358 1164Q1335 1059 1305.5 993.0Q1276 927 1232.5 890.0Q1189 853 1124.0 838.0Q1059 823 966 820Q881 818 834.0 796.0Q787 774 761.0 721.0Q735 668 713 571Q686 451 627.0 378.5Q568 306 470.0 267.0Q372 228 227 207Q262 152 324.5 83.5Q387 15 461.0 -49.5Q535 -114 604 -158Z" fill="#C62828"/></g>
</svg>