<svg xmlns="http://www.w3.org/2000/svg" viewBox="90 -1740 2420 2080">
<g transform="scale(1,-1)"><path d="M1342 -290Q1096 -290 894.5 -216.0Q693 -142 548.0 -6.0Q403 130 325.0 319.0Q247 508 247 737Q247 824 250.5 866.5Q254 909 267 929Q283 904 324.5 851.0Q366 798 442.5 734.5Q519 671 639.5 612.5Q760 554 933.0 516.5Q1106 479 1342 479Q1578 479 1751.0 516.5Q1924 554 2044.5 612.5Q2165 671 2241.5 734.5Q2318 798 2359.5 851.0Q2401 904 2417 929Q2431 909 2434.0 866.5Q2437 824 2437 737Q2437 508 2359.0 319.0Q2281 130 2136.0 -6.0Q1991 -142 1789.5 -216.0Q1588 -290 1342 -290ZM557 741Q540 814 507.5 871.5Q475 929 436.5 963.0Q398 997 362 997Q344 997 332.0 975.5Q320 954 320 910Q320 869 331 825L253 807Q240 862 240 910Q240 984 272.5 1030.5Q305 1077 362 1077Q420 1077 474.5 1035.0Q529 993 571.5 921.5Q614 850 635 759ZM841 605Q826 605 815.5 622.5Q805 640 805 664Q805 688 815.5 705.5Q826 723 841 723Q855 723 865.5 705.5Q876 688 876 664Q876 640 865.5 622.5Q855 605 841 605ZM1342 -212Q1569 -212 1756.0 -145.0Q1943 -78 2078.0 48.0Q2213 174 2286.0 351.5Q2359 529 2359 750Q2359 755 2359.0 759.0Q2359 763 2359 767L2373 742Q2286 668 2187.0 605.5Q2088 543 1966.5 497.0Q1845 451 1692.0 426.0Q1539 401 1342 401Q1146 401 992.5 426.0Q839 451 717.5 497.0Q596 543 497.0 605.5Q398 668 311 742L325 767Q325 758 325.0 750.5Q325 743 325 739Q325 520 398.5 344.0Q472 168 607.0 44.0Q742 -80 929.0 -146.0Q1116 -212 1342 -212ZM998 660Q984 654 967.5 665.5Q951 677 941 698Q931 721 933.0 741.5Q935 762 948 768Q962 774 978.0 762.5Q994 751 1004 730Q1015 707 1013.5 686.5Q1012 666 998 660ZM633 748Q641 771 648.0 797.5Q655 824 662 860Q686 974 723.0 1031.0Q760 1088 831 1128L866 1063Q810 1031 786.5 988.5Q763 946 740 851L727 799ZM673 902Q673 1022 589 1112L643 1166Q692 1111 716.0 1044.5Q740 978 740 904ZM594 558Q563 595 540.5 639.0Q518 683 506 734L1200 1102Q1261 1017 1286.5 934.5Q1312 852 1312 794L1229 826Q1229 905 1173 997L603 695Q637 623 699 558ZM293 737Q219 821 179.5 905.0Q140 989 140 1062Q140 1159 205.5 1222.5Q271 1286 362 1286Q394 1286 431 1277Q457 1363 534.0 1409.0Q611 1455 708 1455Q789 1455 845 1428Q872 1456 912.5 1469.5Q953 1483 992 1483Q1090 1483 1158.0 1407.5Q1226 1332 1270.0 1184.5Q1314 1037 1340 819H1280Q1238 1025 1193.0 1153.5Q1148 1282 1094.5 1342.5Q1041 1403 972 1403Q932 1403 898.0 1385.5Q864 1368 848 1341Q821 1357 787.5 1366.0Q754 1375 708 1375Q620 1375 555.0 1322.0Q490 1269 474 1195Q449 1202 427.0 1204.0Q405 1206 379 1206Q312 1206 266.0 1165.0Q220 1124 220 1062Q220 940 353 790ZM1127 760Q1117 748 1097.0 751.5Q1077 755 1060 770Q1041 787 1034.0 806.5Q1027 826 1036 836Q1046 847 1066.0 844.0Q1086 841 1103 826Q1123 809 1129.5 790.0Q1136 771 1127 760ZM1726 490Q1689 491 1633.0 506.0Q1577 521 1517.5 543.5Q1458 566 1407.0 589.0Q1356 612 1327 629L1369 701Q1398 683 1445.5 660.5Q1493 638 1548.0 616.0Q1603 594 1652.5 578.5Q1702 563 1734 559ZM1549 553Q1531 595 1531 650Q1531 706 1548 761L1625 736Q1619 713 1615.0 691.5Q1611 670 1611 651Q1611 633 1614.5 616.5Q1618 600 1625 586ZM486 1361Q486 1458 528.0 1530.5Q570 1603 639.5 1643.5Q709 1684 789 1684Q833 1684 879.5 1670.0Q926 1656 969 1626L924 1560Q861 1604 789 1604Q726 1604 675.5 1572.5Q625 1541 595.5 1486.0Q566 1431 566 1361ZM1054 461 980 492 1025 600Q1077 725 1144.5 787.5Q1212 850 1300 862Q1321 947 1375.0 994.0Q1429 1041 1499 1041Q1552 1041 1604 1015Q1624 1035 1648.5 1043.5Q1673 1052 1698 1052Q1768 1052 1817 1005Q1836 1015 1856.5 1021.0Q1877 1027 1898 1027Q1956 1027 2015.0 998.5Q2074 970 2117 921Q2149 885 2209.0 869.0Q2269 853 2379 853L2324 773Q2268 773 2218.0 783.0Q2168 793 2127.5 814.0Q2087 835 2057 868Q2025 905 1982.0 926.0Q1939 947 1898 947Q1879 947 1854.0 941.5Q1829 936 1806 920Q1781 948 1754.5 960.0Q1728 972 1698 972Q1673 972 1655.0 963.0Q1637 954 1617 938Q1601 951 1570.0 956.0Q1539 961 1515 961Q1456 961 1414.5 918.5Q1373 876 1368 792Q1308 792 1260.5 772.5Q1213 753 1174.0 704.5Q1135 656 1099 569ZM1732 456 1653 470Q1672 573 1713.5 654.5Q1755 736 1811.0 783.0Q1867 830 1928 830Q1993 830 2028.0 777.5Q2063 725 2063 642Q2063 620 2060.0 595.0Q2057 570 2052 542L1974 559Q1983 610 1983 642Q1983 695 1968.0 722.5Q1953 750 1928 750Q1890 750 1850.5 711.5Q1811 673 1779.0 606.5Q1747 540 1732 456ZM1456 962 1378 980Q1394 1040 1394 1100Q1394 1226 1320 1344L1229 1284L1139 1320L1339 1457Q1474 1293 1474 1098Q1474 1031 1456 962ZM825 1418Q860 1543 933.5 1616.5Q1007 1690 1134 1690Q1215 1690 1287 1651Q1343 1676 1400 1676Q1489 1676 1554.0 1618.5Q1619 1561 1638 1479L1598 1371Q1574 1373 1561.5 1401.0Q1549 1429 1544 1465Q1536 1521 1496.0 1558.5Q1456 1596 1400 1596Q1371 1596 1344.5 1587.5Q1318 1579 1283 1559Q1246 1585 1210.5 1597.5Q1175 1610 1134 1610Q1046 1610 990.0 1559.5Q934 1509 902 1396ZM1809 1050Q1799 1061 1805.5 1080.0Q1812 1099 1831 1115Q1850 1131 1871.0 1134.5Q1892 1138 1900 1127Q1909 1115 1903.0 1096.0Q1897 1077 1878 1061Q1859 1045 1839.0 1042.5Q1819 1040 1809 1050ZM1995 989 1930 1019Q1941 1041 1958.0 1052.5Q1975 1064 1989 1057Q2001 1051 2003.5 1031.0Q2006 1011 1995 989ZM2094 895Q2080 895 2069.5 912.5Q2059 930 2059 954Q2059 978 2069.5 995.5Q2080 1013 2094 1013Q2109 1013 2119.5 995.5Q2130 978 2130 954Q2130 930 2119.5 912.5Q2109 895 2094 895ZM2435 790 2358 810Q2369 856 2374.5 889.0Q2380 922 2380 949Q2380 1009 2353.0 1048.0Q2326 1087 2266 1112Q2211 1135 2178.5 1164.0Q2146 1193 2132 1254Q2117 1318 2063.0 1346.0Q2009 1374 1937 1375Q1937 1411 1910.5 1439.5Q1884 1468 1841.5 1484.5Q1799 1501 1750 1501Q1690 1501 1664.5 1471.0Q1639 1441 1639 1371Q1639 1345 1618.5 1335.5Q1598 1326 1559 1326Q1519 1326 1489.5 1319.0Q1460 1312 1420 1295L1391 1373Q1444 1394 1483.0 1400.0Q1522 1406 1560 1406Q1568 1491 1616.5 1536.0Q1665 1581 1750 1581Q1831 1581 1894.5 1547.0Q1958 1513 1991 1451Q2074 1441 2134.5 1388.0Q2195 1335 2212 1267Q2220 1234 2238.0 1218.5Q2256 1203 2297 1186Q2460 1118 2460 949Q2460 915 2453.5 876.0Q2447 837 2435 790ZM2214 841Q2256 861 2279.0 892.0Q2302 923 2329 981L1763 1283Q1734 1226 1720.0 1160.0Q1706 1094 1706 1009H1626Q1626 1122 1651.0 1214.5Q1676 1307 1735 1389L2426 1020Q2402 919 2338 845ZM2406 1074 2332 1104Q2355 1160 2355 1205Q2355 1267 2325.0 1316.5Q2295 1366 2243.5 1395.5Q2192 1425 2128 1425Q2066 1425 2019 1385L1968 1447Q2038 1505 2128 1505Q2214 1505 2283.5 1465.0Q2353 1425 2394.0 1357.0Q2435 1289 2435 1205Q2435 1174 2427.5 1140.5Q2420 1107 2406 1074Z" fill="#2E7D32"/></g>
</svg>