<svg xmlns="http://www.w3.org/2000/svg" viewBox="113 -1740 2374 2080">
<g transform="scale(1,-1)"><path d="M1284 -290Q1034 -290 828.0 -218.0Q622 -146 473.0 -13.0Q324 120 243.5 305.0Q163 490 163 716V857Q163 906 255.0 951.0Q347 996 505.0 1031.5Q663 1067 864.5 1087.5Q1066 1108 1284 1108Q1385 1108 1482.5 1103.5Q1580 1099 1666 1090L1336 703L1627 691L1953 1053Q2153 1019 2279.0 966.0Q2405 913 2405 857V716Q2405 490 2324.5 305.0Q2244 120 2095.0 -13.0Q1946 -146 1740.0 -218.0Q1534 -290 1284 -290ZM779 99Q758 99 724.5 129.0Q691 159 653.5 206.5Q616 254 582.5 308.0Q549 362 528.0 410.5Q507 459 507 490Q507 511 517.5 522.5Q528 534 541 534Q568 534 580 502Q617 405 668.0 322.0Q719 239 801 170Q818 156 818 136Q818 121 807.0 110.0Q796 99 779 99ZM1284 -210Q1518 -210 1709.5 -144.5Q1901 -79 2039.0 44.0Q2177 167 2251.0 338.5Q2325 510 2325 721V784Q2215 740 2055.5 709.0Q1896 678 1700.5 661.5Q1505 645 1284 645Q1064 645 868.0 661.5Q672 678 513.0 709.0Q354 740 243 784V721Q243 510 317.0 338.5Q391 167 529.0 44.0Q667 -79 858.5 -144.5Q1050 -210 1284 -210ZM1660 677 1293 693 1798 1314Q1891 1428 1950.0 1498.5Q2009 1569 2043.5 1607.5Q2078 1646 2095.5 1663.5Q2113 1681 2123 1690Q2287 1690 2362.0 1658.0Q2437 1626 2437 1556Q2437 1526 2421.0 1496.5Q2405 1467 2371 1431ZM1423 727Q1451 727 1481.0 728.0Q1511 729 1542.5 730.5Q1574 732 1604 734L2307 1480Q2334 1509 2345.5 1525.0Q2357 1541 2357 1554Q2357 1580 2301.5 1594.5Q2246 1609 2148 1609Q2137 1598 2107.0 1563.0Q2077 1528 2018.5 1457.0Q1960 1386 1862 1266ZM2128 1462Q2118 1462 2111.5 1469.0Q2105 1476 2105 1486Q2105 1501 2127.5 1520.0Q2150 1539 2181.0 1553.0Q2212 1567 2235 1567Q2264 1567 2264 1543Q2264 1520 2238 1517Q2214 1514 2196.0 1504.5Q2178 1495 2152 1473Q2139 1462 2128 1462Z" fill="#E65100"/></g>
</svg>