<svg xmlns="http://www.w3.org/2000/svg" viewBox="160 -1790 2280 2180">
<g transform="scale(1,-1)"><path d="M1069 -340Q875 -340 717.0 -271.5Q559 -203 445.5 -77.5Q332 48 271.0 222.0Q210 396 210 606Q210 803 285.5 946.5Q361 1090 502 1170Q590 1220 689.0 1242.0Q788 1264 888.5 1273.0Q989 1282 1082.0 1293.5Q1175 1305 1251 1335Q1327 1365 1392.0 1414.5Q1457 1464 1519.5 1520.0Q1582 1576 1649.5 1626.0Q1717 1676 1797.5 1708.0Q1878 1740 1980 1740Q2174 1740 2282.0 1578.0Q2390 1416 2390 1126Q2390 897 2324.0 681.0Q2258 465 2137.0 280.0Q2016 95 1851.0 -44.5Q1686 -184 1488.0 -262.0Q1290 -340 1069 -340ZM924 424Q808 424 716.5 456.5Q625 489 573.0 545.5Q521 602 521 675Q521 727 545.5 791.0Q570 855 609.0 910.0Q648 965 689 989Q736 1017 843.5 1041.0Q951 1065 1102.5 1080.0Q1254 1095 1430 1095Q1430 1048 1448.0 997.5Q1466 947 1495.5 905.5Q1525 864 1558 842Q1450 634 1287.5 529.0Q1125 424 924 424ZM1132 43Q1071 43 1041.5 72.0Q1012 101 1012 142Q1012 185 1043.0 212.0Q1074 239 1125.0 261.0Q1176 283 1238.0 309.5Q1300 336 1362 376Q1436 424 1507.0 495.5Q1578 567 1642.5 637.0Q1707 707 1760 750Q1817 796 1866.5 815.5Q1916 835 1959 835Q2016 835 2043.0 807.0Q2070 779 2070 738Q2070 694 2032.0 626.0Q1994 558 1925.5 479.5Q1857 401 1767.0 324.0Q1677 247 1572.0 183.5Q1467 120 1355.0 81.5Q1243 43 1132 43ZM1104 -107Q1238 -107 1378.5 -59.5Q1519 -12 1654.5 74.0Q1790 160 1908.0 276.0Q2026 392 2116.5 530.5Q2207 669 2258.5 821.0Q2310 973 2310 1129Q2310 1376 2225.0 1518.0Q2140 1660 1975 1660Q1917 1660 1876.5 1633.5Q1836 1607 1799.0 1564.5Q1762 1522 1714.5 1472.0Q1667 1422 1593 1375Q1490 1310 1377.0 1276.0Q1264 1242 1148.5 1226.0Q1033 1210 923.0 1198.0Q813 1186 716.0 1165.5Q619 1145 542 1101Q437 1041 383.5 928.0Q330 815 330 673Q330 544 379.0 456.0Q428 368 512.0 316.0Q596 264 700 241Q791 222 833.0 196.0Q875 170 875 114Q875 39 910.0 -10.0Q945 -59 997.5 -83.0Q1050 -107 1104 -107ZM1715 941Q1653 941 1609.0 985.0Q1565 1029 1565 1091Q1565 1153 1608.5 1197.0Q1652 1241 1715 1241Q1777 1241 1821.0 1197.0Q1865 1153 1865 1091Q1865 1029 1821.0 985.0Q1777 941 1715 941ZM2109 1006Q2075 1006 2043.0 1014.0Q2011 1022 1977 1047Q1984 1072 1984 1106Q1984 1167 1959.0 1226.5Q1934 1286 1891 1309Q1905 1386 1943.5 1430.5Q1982 1475 2024 1475Q2071 1475 2104.5 1428.5Q2138 1382 2156.5 1305.0Q2175 1228 2175 1134Q2175 1082 2159.5 1044.0Q2144 1006 2109 1006Z" fill="#C62828"/></g>
</svg>