<svg xmlns="http://www.w3.org/2000/svg" viewBox="220 -1790 2160 2180">
<g transform="scale(1,-1)"><path d="M1448 -340Q1307 -340 1161.0 -287.5Q1015 -235 883.5 -143.5Q752 -52 652.5 67.5Q553 187 503 320Q479 385 464.5 456.5Q450 528 450 576Q450 636 470.0 717.0Q490 798 519.0 880.5Q548 963 577.0 1029.0Q606 1095 624 1124Q638 1128 655.5 1131.0Q673 1134 689 1134Q704 1134 716.0 1132.5Q728 1131 738 1127Q738 1166 750.5 1197.0Q763 1228 802.5 1261.5Q842 1295 921.0 1341.0Q1000 1387 1133 1456Q1167 1474 1211.0 1491.5Q1255 1509 1293.5 1521.0Q1332 1533 1348 1533Q1365 1533 1383.5 1525.5Q1402 1518 1422 1518Q1448 1518 1492.5 1525.5Q1537 1533 1597 1533Q1647 1533 1707.0 1523.0Q1767 1513 1837 1487Q1878 1487 1939.5 1438.5Q2001 1390 2069.0 1312.5Q2137 1235 2196.0 1147.5Q2255 1060 2292.5 980.5Q2330 901 2330 849Q2330 515 2269.5 289.5Q2209 64 2081 -77Q2027 -137 1997.5 -178.0Q1968 -219 1951 -248Q1833 -275 1710.5 -307.5Q1588 -340 1448 -340ZM636 140Q536 226 466.0 270.0Q396 314 352.5 332.0Q309 350 289.5 358.0Q270 366 270 380Q270 388 280.0 399.0Q290 410 318 410Q380 410 438.0 391.0Q496 372 558 337ZM1184 -217Q1204 -217 1216.5 -198.5Q1229 -180 1229 -167Q1229 -149 1211 -134L1094 -28Q1076 -11 1055 -11Q1038 -11 1025.5 -26.0Q1013 -41 1013 -58Q1013 -77 1031 -94L1148 -201Q1166 -217 1184 -217ZM708 394Q692 394 680.0 404.0Q668 414 668 433Q668 457 696.0 486.5Q724 516 782 544L827 457Q753 394 708 394ZM1005 200Q990 200 980.0 217.0Q970 234 970 259Q970 279 975.5 308.5Q981 338 990 361L1100 352Q1074 270 1052.5 235.0Q1031 200 1005 200ZM561 758Q521 847 482.0 891.0Q443 935 411.5 953.0Q380 971 361.0 981.5Q342 992 342 1015Q342 1042 393 1042Q485 1042 538.0 993.5Q591 945 591 894ZM1540 -211Q1556 -211 1569.5 -195.5Q1583 -180 1583 -162Q1583 -141 1562 -126L1436 -30Q1419 -16 1400 -16Q1384 -16 1371.0 -30.5Q1358 -45 1358 -63Q1358 -86 1380 -102L1506 -198Q1524 -211 1540 -211ZM1798 -123Q1825 -123 1839.5 -103.0Q1854 -83 1842 -55L1777 90Q1763 122 1734 122Q1707 122 1693.5 101.5Q1680 81 1693 52L1758 -93Q1772 -123 1798 -123ZM1538 306Q1514 306 1485.0 334.0Q1456 362 1427 420L1514 465Q1577 391 1577 346Q1577 330 1567.0 318.0Q1557 306 1538 306ZM652 1079Q672 1132 680.5 1166.0Q689 1200 689 1221Q689 1261 673.5 1290.0Q658 1319 658 1344Q658 1362 677 1362Q714 1362 742.0 1323.5Q770 1285 786.0 1233.0Q802 1181 802 1139ZM1101 307Q918 307 827.5 381.5Q737 456 737 607Q737 736 801.5 853.0Q866 970 975.5 1061.5Q1085 1153 1222.0 1206.0Q1359 1259 1503 1259Q1630 1259 1725.5 1219.0Q1821 1179 1874.5 1108.0Q1928 1037 1928 943Q1928 821 1859.5 707.0Q1791 593 1673.5 503.0Q1556 413 1408.0 360.0Q1260 307 1101 307ZM1101 387Q1242 387 1375.5 433.5Q1509 480 1615.5 559.5Q1722 639 1785.0 738.5Q1848 838 1848 943Q1848 1049 1753.0 1114.0Q1658 1179 1503 1179Q1370 1179 1247.0 1130.5Q1124 1082 1027.0 1000.5Q930 919 873.5 817.0Q817 715 817 607Q817 491 884.0 439.0Q951 387 1101 387ZM915 130H1059Q1222 130 1374.0 174.5Q1526 219 1655.5 297.0Q1785 375 1882.5 478.0Q1980 581 2034.0 699.0Q2088 817 2088 940Q2088 1003 2066.0 1036.5Q2044 1070 2044 1082Q2044 1093 2050.5 1108.0Q2057 1123 2057 1142Q2057 1204 2007.0 1256.5Q1957 1309 1876.0 1348.5Q1795 1388 1701.0 1409.5Q1607 1431 1520 1431Q1336 1431 1194.0 1372.5Q1052 1314 924 1191Q890 1159 856.5 1143.0Q823 1127 806 1112Q737 1049 687.0 961.0Q637 873 610.5 776.5Q584 680 584 591Q584 491 619.0 399.0Q654 307 712 241Q736 252 769 252Q808 252 851.5 226.5Q895 201 915 130ZM1959 127Q1974 127 1987.5 137.5Q2001 148 2004 171L2026 329Q2030 356 2015.0 371.0Q2000 386 1981 386Q1965 386 1951.5 374.5Q1938 363 1935 340L1914 182Q1910 157 1925.0 142.0Q1940 127 1959 127ZM1237 1169Q1216 1226 1216 1269Q1216 1300 1228.0 1319.5Q1240 1339 1259 1339Q1286 1339 1304.5 1301.5Q1323 1264 1329 1198ZM2141 296Q2187 296 2187 345V526Q2187 548 2173.5 563.0Q2160 578 2140 578Q2121 578 2108.5 563.5Q2096 549 2096 526V345Q2096 296 2141 296ZM1860 1046 1815 1133Q1889 1196 1934 1196Q1951 1196 1962.5 1186.0Q1974 1176 1974 1157Q1974 1133 1946.5 1104.0Q1919 1075 1860 1046ZM1730 1483 1582 1506Q1543 1557 1543 1644Q1543 1687 1552.5 1713.5Q1562 1740 1578 1740Q1591 1740 1603.5 1719.5Q1616 1699 1631 1652Q1647 1602 1671.0 1561.5Q1695 1521 1730 1483ZM2133 1201 2001 1326Q2001 1461 2027.5 1520.5Q2054 1580 2082 1580Q2098 1580 2098 1561Q2098 1542 2101.5 1500.5Q2105 1459 2111 1405Z" fill="#5D4037"/></g>
</svg>