<svg xmlns="http://www.w3.org/2000/svg" viewBox="360 -1790 1880 2180">
<g transform="scale(1,-1)"><path d="M1300 -340Q1114 -340 952.5 -270.5Q791 -201 669.0 -77.5Q547 46 478.5 208.5Q410 371 410 557Q410 743 478.5 905.5Q547 1068 669.0 1191.5Q791 1315 952.5 1384.5Q1114 1454 1300 1454Q1486 1454 1648.0 1384.5Q1810 1315 1931.5 1192.0Q2053 1069 2121.5 906.0Q2190 743 2190 557Q2190 371 2121.5 208.0Q2053 45 1931.0 -78.0Q1809 -201 1647.5 -270.5Q1486 -340 1300 -340ZM1044 34 974 74 1030 171 1100 131ZM816 234 776 304 873 360 913 290ZM719 517V597H832V517ZM1258 -23V89H1338V-23ZM1554 34 1498 131 1568 171 1624 74ZM873 756 776 812 816 882 913 826ZM1300 -260Q1470 -260 1617.0 -196.5Q1764 -133 1874.5 -21.0Q1985 91 2047.5 239.5Q2110 388 2110 557Q2110 727 2048.0 875.0Q1986 1023 1875.0 1135.5Q1764 1248 1617.0 1311.0Q1470 1374 1300 1374Q1131 1374 984.0 1310.5Q837 1247 726.0 1134.5Q615 1022 552.5 874.0Q490 726 490 557Q490 388 552.5 240.0Q615 92 726.0 -20.5Q837 -133 984.0 -196.5Q1131 -260 1300 -260ZM1298 -171Q1148 -171 1017.0 -114.5Q886 -58 787.5 42.5Q689 143 633.5 275.0Q578 407 578 557Q578 709 633.5 841.0Q689 973 787.5 1073.5Q886 1174 1017.0 1230.5Q1148 1287 1298 1287Q1449 1287 1580.0 1230.5Q1711 1174 1810.0 1073.5Q1909 973 1964.5 841.0Q2020 709 2020 557Q2020 407 1964.5 275.0Q1909 143 1810.0 42.5Q1711 -58 1580.0 -114.5Q1449 -171 1298 -171ZM1298 -91Q1433 -91 1549.5 -40.5Q1666 10 1753.5 99.0Q1841 188 1890.5 305.5Q1940 423 1940 557Q1940 692 1890.5 809.5Q1841 927 1753.5 1016.5Q1666 1106 1549.5 1156.5Q1433 1207 1298 1207Q1164 1207 1048.0 1156.5Q932 1106 844.5 1016.5Q757 927 707.5 809.5Q658 692 658 557Q658 423 707.5 305.5Q757 188 844.5 99.0Q932 10 1048.0 -40.5Q1164 -91 1298 -91ZM1299 463Q1260 463 1232.5 491.0Q1205 519 1205 558Q1205 597 1232.5 625.0Q1260 653 1299 653Q1338 653 1365.5 625.0Q1393 597 1393 558Q1393 519 1365.5 491.0Q1338 463 1299 463ZM1030 945 974 1042 1044 1082 1100 985ZM1782 234 1685 290 1725 360 1822 304ZM1260 557V1166H1340V557ZM1766 517V597H1879V517ZM1725 756 1685 826 1782 882 1822 812ZM1568 945 1498 985 1554 1082 1624 1042ZM1264 1397V1542H1344V1397ZM1304 1524Q1247 1524 1206.5 1536.5Q1166 1549 1166 1562V1694Q1166 1714 1183 1722Q1195 1728 1222.0 1734.0Q1249 1740 1304 1740Q1359 1740 1386.5 1734.5Q1414 1729 1425 1722Q1442 1711 1442 1694V1562Q1442 1549 1401.5 1536.5Q1361 1524 1304 1524ZM1869 1187 1811 1241 1903 1340 1961 1286ZM2044 1232Q2036 1223 1998.5 1241.0Q1961 1259 1920 1299Q1880 1338 1857.5 1375.0Q1835 1412 1845 1422L1941 1524Q1950 1533 1963 1533Q1983 1533 2014.0 1511.5Q2045 1490 2072 1463Q2113 1423 2131.5 1397.0Q2150 1371 2150 1352Q2150 1342 2143 1334Z" fill="#3B78E7"/></g>
</svg>