<svg xmlns="http://www.w3.org/2000/svg" viewBox="50 -1790 2500 2180">
<g transform="scale(1,-1)"><path d="M1604 -340 1564 -67Q1540 95 1513.5 204.0Q1487 313 1447.5 382.5Q1408 452 1346.5 494.5Q1285 537 1193.5 565.0Q1102 593 970 620L805 654V747L970 781Q1102 808 1193.5 836.0Q1285 864 1346.5 906.5Q1408 949 1447.5 1018.0Q1487 1087 1513.5 1196.0Q1540 1305 1564 1467L1604 1740H1702L1741 1467Q1764 1305 1790.5 1196.0Q1817 1087 1857.0 1017.5Q1897 948 1958.5 905.5Q2020 863 2111.5 835.5Q2203 808 2335 781L2500 747V654L2335 620Q2203 593 2111.5 565.0Q2020 537 1958.5 494.5Q1897 452 1857.0 382.5Q1817 313 1790.5 204.0Q1764 95 1741 -67L1702 -340ZM501 -340 468 -179Q448 -79 426.5 -21.0Q405 37 367.0 67.5Q329 98 258 117L100 159V252L258 295Q329 315 367.0 345.5Q405 376 426.5 433.0Q448 490 468 590L501 751H602L634 590Q654 490 675.5 433.0Q697 376 735.5 345.5Q774 315 845 295L1002 252V159L845 117Q774 98 735.5 67.5Q697 37 675.5 -21.0Q654 -79 634 -179L602 -340ZM548 -227Q566 -110 588.5 -33.0Q611 44 648.0 91.0Q685 138 746.5 164.5Q808 191 905 209V203Q808 221 746.5 247.5Q685 274 648.0 320.5Q611 367 588.5 444.0Q566 521 548 638H554Q536 521 514.0 444.0Q492 367 455.0 320.5Q418 274 356.5 247.5Q295 221 198 203V209Q295 191 356.5 164.5Q418 138 455.0 91.0Q492 44 514.0 -33.0Q536 -110 554 -227ZM663 888 639 1015Q623 1099 601.5 1144.0Q580 1189 537.5 1211.5Q495 1234 416 1251L338 1268V1360L416 1378Q495 1396 537.5 1418.5Q580 1441 601.5 1485.5Q623 1530 639 1613L663 1740H759L784 1613Q801 1530 822.0 1485.5Q843 1441 885.5 1419.0Q928 1397 1007 1378L1084 1360V1268L1007 1251Q928 1234 885.5 1211.0Q843 1188 822.0 1143.5Q801 1099 784 1015L759 888ZM707 988Q723 1083 742.0 1140.5Q761 1198 791.0 1230.5Q821 1263 870.0 1282.0Q919 1301 995 1317V1311Q919 1328 870.0 1346.5Q821 1365 791.0 1398.0Q761 1431 742.0 1488.5Q723 1546 707 1641H715Q699 1546 680.0 1488.5Q661 1431 631.5 1398.0Q602 1365 553.0 1346.5Q504 1328 428 1311V1317Q504 1301 553.0 1282.0Q602 1263 631.5 1230.5Q661 1198 680.0 1140.5Q699 1083 715 988ZM1649 -148Q1672 22 1695.5 144.0Q1719 266 1751.0 350.5Q1783 435 1830.0 490.5Q1877 546 1946.0 583.0Q2015 620 2112.5 648.0Q2210 676 2344 704V696Q2210 725 2112.5 752.5Q2015 780 1946.0 817.0Q1877 854 1830.0 909.5Q1783 965 1751.0 1049.5Q1719 1134 1695.5 1256.0Q1672 1378 1649 1548H1656Q1633 1378 1609.5 1256.0Q1586 1134 1554.0 1049.5Q1522 965 1475.0 909.5Q1428 854 1359.5 817.0Q1291 780 1193.5 752.5Q1096 725 962 696V704Q1096 676 1193.5 648.5Q1291 621 1359.5 584.0Q1428 547 1475.0 491.5Q1522 436 1554.0 351.5Q1586 267 1609.5 145.0Q1633 23 1656 -148Z" fill="#F9A825"/></g>
</svg>